<svg version="1.2" xmlns="http://www.w3.org/2000/svg" viewBox="0 0 40 8" width="40" height="8">
	<title>h2_mike-svg</title>
	<defs>
		<clipPath clipPathUnits="userSpaceOnUse" id="cp1">
			<path d="m2.75 1.74v0.9h-0.74v3.63h-1.24v-3.63h-0.73v-0.9zm2.36 0l0.71 4.53h-1.27l-0.06-0.82h-0.45l-0.07 0.82h-1.29l0.64-4.53zm-0.66 2.91q-0.1-0.77-0.19-1.9-0.19 1.3-0.24 1.9zm3.93-2.91v0.9h-0.74v3.63h-1.24v-3.63h-0.73v-0.9zm2.96 0v0.9h-0.74v3.63h-1.24v-3.63h-0.73v-0.9zm3.3 2.65q0 0.68-0.04 0.97-0.03 0.28-0.21 0.52-0.18 0.23-0.48 0.36-0.3 0.12-0.71 0.12-0.38 0-0.69-0.11-0.3-0.12-0.49-0.36-0.18-0.24-0.22-0.52-0.03-0.28-0.03-0.98v-0.77q0-0.69 0.03-0.97 0.04-0.29 0.21-0.52 0.18-0.24 0.49-0.36 0.3-0.13 0.7-0.13 0.39 0 0.69 0.12 0.31 0.12 0.49 0.36 0.19 0.24 0.22 0.52 0.04 0.28 0.04 0.98zm-1.24-1.49q0-0.32-0.04-0.41-0.04-0.09-0.15-0.09-0.1 0-0.15 0.08-0.05 0.07-0.05 0.42v2.11q0 0.4 0.03 0.49 0.04 0.09 0.16 0.09 0.13 0 0.16-0.1 0.04-0.11 0.04-0.51zm4.72 1.49q0 0.68-0.03 0.97-0.04 0.28-0.22 0.51-0.17 0.24-0.48 0.36-0.3 0.13-0.7 0.13-0.39 0-0.69-0.12-0.31-0.12-0.49-0.36-0.19-0.23-0.22-0.51-0.04-0.28-0.04-0.98v-0.78q0-0.68 0.03-0.96 0.04-0.29 0.22-0.52 0.17-0.24 0.48-0.36 0.3-0.13 0.71-0.13 0.38 0 0.68 0.12 0.31 0.12 0.5 0.36 0.18 0.23 0.22 0.51 0.03 0.28 0.03 0.98zm-1.24-1.49q0-0.31-0.04-0.4-0.03-0.09-0.15-0.09-0.1 0-0.15 0.07-0.05 0.07-0.05 0.42v2.12q0 0.39 0.03 0.49 0.04 0.09 0.16 0.09 0.13 0 0.17-0.11 0.03-0.1 0.03-0.5zm3.14-1.17h1.24q0.58 0 0.88 0.09 0.31 0.09 0.49 0.35 0.19 0.26 0.19 0.85 0 0.4-0.13 0.56-0.13 0.15-0.52 0.24 0.43 0.09 0.58 0.3 0.16 0.22 0.16 0.66v0.42q0 0.46-0.12 0.68-0.1 0.22-0.35 0.3-0.24 0.08-0.99 0.08h-1.43zm1.24 0.78v1.01q0.08-0.01 0.12-0.01 0.18 0 0.23-0.08 0.06-0.09 0.06-0.49 0-0.21-0.05-0.3-0.04-0.08-0.11-0.11-0.06-0.02-0.25-0.02zm0 1.71v1.27q0.26-0.01 0.33-0.08 0.08-0.07 0.08-0.34v-0.43q0-0.29-0.07-0.35-0.06-0.06-0.34-0.07zm4.92-2.49l-0.91 2.89v1.64h-1.14v-1.64l-0.88-2.89h1.14q0.27 1.33 0.3 1.79 0.11-0.73 0.35-1.79zm5.47 0v4.53h-1.08v-3.06l-0.43 3.06h-0.77l-0.46-2.99v2.99h-1.09v-4.53h1.61q0.07 0.41 0.15 0.97l0.17 1.15 0.28-2.12zm0.68 0h1.25v4.53h-1.25zm4.88 0l-0.71 2.05 0.78 2.48h-1.28l-0.5-1.94v1.94h-1.25v-4.53h1.25v1.76l0.55-1.76zm0.46 0h2.07v0.91h-0.82v0.86h0.77v0.86h-0.77v1h0.91v0.9h-2.16z"/>
		</clipPath>
	</defs>
	<style>
		.s0 { fill: #af2043 } 
	</style>
	<path id="Layer" fill-rule="evenodd" class="s0" d="m2.7 1.7v0.9h-0.7v3.7h-1.2v-3.7h-0.8v-0.9zm2.4 0l0.7 4.6h-1.3v-0.8h-0.5v0.8h-1.3l0.6-4.6zm-0.7 3q0-0.8-0.1-1.9-0.2 1.2-0.3 1.9zm3.9-3v0.9h-0.7v3.7h-1.2v-3.7h-0.8v-0.9zm3 0v0.9h-0.7v3.7h-1.3v-3.7h-0.7v-0.9zm3.3 2.7q0 0.7 0 1-0.1 0.2-0.3 0.5-0.1 0.2-0.4 0.3-0.3 0.2-0.7 0.2-0.4 0-0.7-0.2-0.3-0.1-0.5-0.3-0.2-0.2-0.2-0.5-0.1-0.3-0.1-1v-0.8q0-0.7 0-0.9 0.1-0.3 0.3-0.6 0.1-0.2 0.4-0.3 0.3-0.2 0.8-0.2 0.3 0 0.6 0.2 0.3 0.1 0.5 0.3 0.2 0.3 0.3 0.5 0 0.3 0 1zm-1.3-1.5q0-0.3 0-0.4 0-0.1-0.1-0.1-0.1 0-0.2 0.1 0 0.1 0 0.4v2.1q0 0.4 0 0.5 0 0.1 0.2 0.1 0.1 0 0.1-0.1 0-0.1 0-0.5zm4.8 1.5q0 0.7-0.1 1 0 0.2-0.2 0.5-0.2 0.2-0.5 0.3-0.3 0.2-0.7 0.2-0.3 0-0.7-0.1-0.3-0.2-0.4-0.4-0.2-0.2-0.3-0.5 0-0.3 0-1v-0.8q0-0.7 0-0.9 0.1-0.3 0.2-0.6 0.2-0.2 0.5-0.3 0.3-0.2 0.7-0.2 0.4 0 0.7 0.2 0.3 0.1 0.5 0.3 0.2 0.3 0.2 0.5 0.1 0.3 0.1 1zm-1.3-1.5q0-0.3 0-0.4 0-0.1-0.2-0.1-0.1 0-0.1 0.1-0.1 0.1-0.1 0.4v2.1q0 0.4 0.1 0.5 0 0.1 0.1 0.1 0.2 0 0.2-0.1 0-0.1 0-0.5zm3.2-1.1h1.2q0.6 0 0.9 0 0.3 0.1 0.5 0.4 0.2 0.3 0.2 0.8 0 0.4-0.2 0.6-0.1 0.2-0.5 0.2 0.4 0.1 0.6 0.3 0.2 0.3 0.2 0.7v0.4q0 0.5-0.2 0.7-0.1 0.2-0.3 0.3-0.2 0.1-1 0.1h-1.4zm1.2 0.8v1q0.1 0 0.1 0 0.2 0 0.3-0.1 0-0.1 0-0.5 0-0.2 0-0.3-0.1-0.1-0.1-0.1-0.1 0-0.3 0zm0 1.7v1.2q0.3 0 0.3 0 0.1-0.1 0.1-0.4v-0.4q0-0.3 0-0.4-0.1 0-0.4 0zm4.9-2.5l-0.9 2.9v1.6h-1.1v-1.6l-0.9-2.9h1.1q0.3 1.3 0.3 1.8 0.1-0.8 0.4-1.8zm5.5 0v4.5h-1.1v-3l-0.5 3h-0.7l-0.5-3v3h-1.1v-4.5h1.6q0.1 0.4 0.2 0.9l0.2 1.2 0.2-2.1zm0.7 0h1.3v4.5h-1.3zm4.9 0l-0.7 2.1 0.8 2.4h-1.3l-0.5-1.9v1.9h-1.3v-4.5h1.3v1.8l0.5-1.8zm0.5 0h2.1v0.9h-0.9v0.9h0.8v0.8h-0.8v1h1v0.9h-2.2z"/>
	<g id="Clip-Path" clip-path="url(#cp1)">
		<g id="Layer">
			<path id="Layer" d="m40 6.4h-40v-4.8h40z"/>
		</g>
	</g>
</svg>