<svg version="1.2" xmlns="http://www.w3.org/2000/svg" viewBox="0 0 40 6" width="40" height="6">
	<title>h2_book-svg</title>
	<defs>
		<clipPath clipPathUnits="userSpaceOnUse" id="cp1">
			<path d="m0.17 1.3h0.85q0.41 0 0.62 0.07 0.2 0.06 0.33 0.26 0.13 0.2 0.13 0.64 0 0.3-0.09 0.42-0.09 0.11-0.36 0.18 0.3 0.07 0.41 0.23 0.1 0.16 0.1 0.49v0.31q0 0.35-0.08 0.51-0.07 0.17-0.24 0.23-0.16 0.06-0.68 0.06h-0.99zm0.86 0.58v0.76q0.05 0 0.08 0 0.13 0 0.16-0.07 0.04-0.06 0.04-0.36 0-0.16-0.03-0.23-0.03-0.06-0.08-0.08-0.04-0.02-0.17-0.02zm0 1.29v0.95q0.18-0.01 0.23-0.06 0.05-0.05 0.05-0.26v-0.32q0-0.21-0.05-0.26-0.04-0.05-0.23-0.05zm3.52 0.12q0 0.51-0.03 0.73-0.02 0.21-0.14 0.39-0.12 0.17-0.33 0.27-0.21 0.09-0.49 0.09-0.26 0-0.48-0.09-0.2-0.09-0.33-0.27-0.13-0.17-0.15-0.38-0.03-0.21-0.03-0.74v-0.58q0-0.51 0.02-0.72 0.03-0.22 0.15-0.39 0.12-0.18 0.33-0.28 0.21-0.09 0.49-0.09 0.26 0 0.47 0.09 0.21 0.09 0.34 0.27 0.13 0.18 0.15 0.39 0.03 0.21 0.03 0.73zm-0.86-1.12q0-0.23-0.02-0.3-0.03-0.07-0.11-0.07-0.06 0-0.1 0.06-0.03 0.05-0.03 0.31v1.59q0 0.3 0.02 0.37 0.02 0.06 0.11 0.06 0.09 0 0.11-0.08 0.02-0.08 0.02-0.38zm3.26 1.12q0 0.51-0.03 0.73-0.02 0.21-0.14 0.39-0.12 0.17-0.33 0.27-0.21 0.09-0.49 0.09-0.26 0-0.48-0.09-0.2-0.09-0.33-0.27-0.13-0.17-0.15-0.38-0.03-0.21-0.03-0.74v-0.58q0-0.51 0.02-0.72 0.03-0.22 0.15-0.39 0.12-0.18 0.33-0.28 0.21-0.09 0.49-0.09 0.26 0 0.47 0.09 0.21 0.09 0.34 0.27 0.13 0.18 0.15 0.39 0.03 0.21 0.03 0.73zm-0.86-1.12q0-0.23-0.02-0.3-0.03-0.07-0.11-0.07-0.06 0-0.1 0.06-0.03 0.05-0.03 0.31v1.59q0 0.3 0.02 0.37 0.02 0.06 0.11 0.06 0.09 0 0.11-0.08 0.02-0.07 0.02-0.38zm3.34-0.87l-0.49 1.54 0.54 1.86h-0.88l-0.35-1.46v1.46h-0.85v-3.4h0.85v1.32l0.38-1.32zm2.66 0l0.49 3.4h-0.88l-0.04-0.61h-0.31l-0.05 0.61h-0.88l0.43-3.4zm-0.45 2.19q-0.07-0.58-0.13-1.43-0.13 0.98-0.16 1.43zm3.12-2.19v3.4h-0.75l-0.44-1.54v1.54h-0.72v-3.4h0.72l0.47 1.53v-1.53zm2.81 0l0.49 3.4h-0.87l-0.05-0.61h-0.3l-0.05 0.61h-0.89l0.43-3.4zm-0.45 2.19q-0.06-0.58-0.13-1.43-0.13 0.98-0.16 1.43zm1.21-2.19h0.86q0.35 0 0.54 0.06 0.19 0.06 0.28 0.16 0.1 0.11 0.13 0.26 0.04 0.15 0.04 0.47v0.3q0 0.32-0.07 0.47-0.06 0.15-0.24 0.23-0.17 0.08-0.45 0.08h-0.23v1.37h-0.86zm0.86 0.58v0.87q0.03 0 0.06 0 0.12 0 0.16-0.06 0.05-0.06 0.05-0.25v-0.28q0-0.17-0.05-0.23-0.06-0.05-0.22-0.05zm1.36-0.58h0.86q0.35 0 0.53 0.06 0.19 0.05 0.29 0.16 0.09 0.11 0.12 0.26 0.04 0.15 0.04 0.47v0.3q0 0.32-0.07 0.47-0.06 0.15-0.24 0.23-0.17 0.08-0.45 0.08h-0.23v1.37h-0.85zm0.85 0.58v0.86q0.04 0.01 0.06 0.01 0.12 0 0.17-0.06 0.04-0.06 0.04-0.25v-0.28q0-0.18-0.05-0.23-0.05-0.05-0.22-0.05zm3.31 1.41q0 0.51-0.02 0.72-0.02 0.22-0.15 0.39-0.12 0.18-0.33 0.27-0.21 0.1-0.49 0.1-0.26 0-0.47-0.09-0.21-0.09-0.34-0.27-0.13-0.18-0.15-0.39-0.03-0.21-0.03-0.73v-0.58q0-0.52 0.03-0.73 0.02-0.21 0.14-0.39 0.13-0.17 0.34-0.27 0.21-0.09 0.48-0.09 0.27 0 0.48 0.09 0.21 0.09 0.34 0.26 0.12 0.18 0.15 0.39 0.02 0.21 0.02 0.74zm-0.85-1.12q0-0.24-0.03-0.3-0.02-0.07-0.1-0.07-0.07 0-0.11 0.05-0.03 0.06-0.03 0.32v1.59q0 0.29 0.02 0.36 0.03 0.07 0.11 0.07 0.09 0 0.11-0.08 0.03-0.08 0.03-0.38zm1.3-0.87h0.85v3.4h-0.85zm3.23 0v3.39h-0.75l-0.44-1.54v1.54h-0.72v-3.39h0.72l0.48 1.53v-1.53zm2.19 0v0.68h-0.51v2.71h-0.85v-2.71h-0.51v-0.68zm2.96 0v3.39h-0.75v-2.29l-0.3 2.29h-0.53l-0.31-2.24v2.24h-0.75v-3.39h1.11q0.05 0.3 0.1 0.72l0.12 0.86 0.19-1.58zm0.47 0h1.43v0.68h-0.57v0.64h0.53v0.65h-0.53v0.74h0.63v0.68h-1.49zm3.77 0v3.4h-0.75l-0.45-1.54v1.54h-0.71v-3.4h0.71l0.48 1.53v-1.53zm2.19 0v0.68h-0.5v2.72h-0.86v-2.72h-0.5v-0.68z"/>
		</clipPath>
	</defs>
	<style>
		.s0 { fill: #af2043 } 
	</style>
	<path id="Layer" fill-rule="evenodd" class="s0" d="m0.2 1.3h0.8q0.4 0 0.6 0.1 0.2 0 0.4 0.2 0.1 0.2 0.1 0.7 0 0.3-0.1 0.4-0.1 0.1-0.3 0.2 0.3 0 0.4 0.2 0.1 0.2 0.1 0.5v0.3q0 0.3-0.1 0.5-0.1 0.2-0.3 0.2-0.1 0.1-0.6 0.1h-1zm0.8 0.6v0.7q0.1 0 0.1 0 0.1 0 0.2 0 0-0.1 0-0.4 0-0.2 0-0.2-0.1-0.1-0.1-0.1 0 0-0.2 0zm0 1.3v0.9q0.2 0 0.3 0 0-0.1 0-0.3v-0.3q0-0.2 0-0.3-0.1 0-0.3 0zm3.5 0.1q0 0.5 0 0.7 0 0.2-0.1 0.4-0.1 0.2-0.4 0.3-0.2 0.1-0.4 0.1-0.3 0-0.5-0.1-0.2-0.1-0.4-0.3-0.1-0.2-0.1-0.4 0-0.2 0-0.7v-0.6q0-0.5 0-0.7 0-0.2 0.1-0.4 0.2-0.2 0.4-0.3 0.2-0.1 0.5-0.1 0.2 0 0.4 0.1 0.2 0.1 0.4 0.3 0.1 0.2 0.1 0.4 0 0.2 0 0.7zm-0.8-1.1q0-0.2 0-0.3-0.1-0.1-0.1-0.1-0.1 0-0.1 0.1-0.1 0-0.1 0.3v1.6q0 0.3 0 0.3 0.1 0.1 0.2 0.1 0 0 0.1-0.1 0 0 0-0.3zm3.2 1.1q0 0.5 0 0.7 0 0.2-0.1 0.4-0.1 0.2-0.4 0.3-0.2 0.1-0.4 0.1-0.3 0-0.5-0.1-0.2-0.1-0.4-0.3-0.1-0.2-0.1-0.4 0-0.2 0-0.7v-0.6q0-0.5 0-0.7 0-0.2 0.1-0.4 0.2-0.2 0.4-0.3 0.2-0.1 0.5-0.1 0.2 0 0.4 0.1 0.2 0.1 0.4 0.3 0.1 0.1 0.1 0.4 0 0.2 0 0.7zm-0.8-1.1q0-0.3 0-0.3-0.1-0.1-0.1-0.1-0.1 0-0.1 0.1-0.1 0-0.1 0.3v1.6q0 0.3 0 0.3 0.1 0.1 0.2 0.1 0 0 0.1-0.1 0-0.1 0-0.4zm3.3-0.8l-0.5 1.5 0.6 1.9h-0.9l-0.3-1.5v1.5h-0.9v-3.4h0.9v1.3l0.3-1.3zm2.7 0l0.5 3.4h-0.9v-0.7h-0.3l-0.1 0.7h-0.9l0.5-3.4zm-0.5 2.1q-0.1-0.5-0.1-1.4-0.2 1-0.2 1.4zm3.1-2.1v3.4h-0.7l-0.5-1.6v1.6h-0.7v-3.4h0.7l0.5 1.5v-1.5zm2.8 0l0.5 3.4h-0.9v-0.7h-0.3l-0.1 0.7h-0.9l0.5-3.4zm-0.5 2.1q0-0.5-0.1-1.4-0.1 1-0.2 1.4zm1.3-2.1h0.8q0.4 0 0.6 0 0.1 0.1 0.2 0.2 0.1 0.1 0.2 0.2 0 0.2 0 0.5v0.3q0 0.3-0.1 0.5 0 0.1-0.2 0.2-0.2 0.1-0.5 0.1h-0.2v1.4h-0.8zm0.8 0.5v0.9q0 0 0.1 0 0.1 0 0.1-0.1 0.1 0 0.1-0.2v-0.3q0-0.2-0.1-0.2 0-0.1-0.2-0.1zm1.4-0.5h0.8q0.4 0 0.6 0 0.2 0.1 0.2 0.2 0.1 0.1 0.2 0.2 0 0.2 0 0.5v0.3q0 0.3-0.1 0.5 0 0.1-0.2 0.2-0.2 0.1-0.4 0.1h-0.3v1.4h-0.8zm0.8 0.5v0.9q0.1 0 0.1 0 0.1 0 0.1-0.1 0.1 0 0.1-0.2v-0.3q0-0.2-0.1-0.2 0-0.1-0.2-0.1zm3.3 1.4q0 0.6 0 0.8 0 0.2-0.1 0.4-0.2 0.1-0.4 0.2-0.2 0.1-0.5 0.1-0.2 0-0.4-0.1-0.2-0.1-0.4-0.2-0.1-0.2-0.1-0.4 0-0.2 0-0.8v-0.5q0-0.5 0-0.8 0-0.2 0.1-0.3 0.1-0.2 0.4-0.3 0.2-0.1 0.4-0.1 0.3 0 0.5 0.1 0.2 0.1 0.4 0.2 0.1 0.2 0.1 0.4 0 0.2 0 0.8zm-0.8-1.2q0-0.2 0-0.3-0.1 0-0.2 0 0 0-0.1 0 0 0.1 0 0.3v1.6q0 0.3 0 0.4 0.1 0.1 0.1 0.1 0.1 0 0.2-0.1 0-0.1 0-0.4zm1.3-0.9h0.8v3.4h-0.8zm3.2 0v3.4h-0.7l-0.5-1.5v1.5h-0.7v-3.4h0.7l0.5 1.6v-1.6zm2.2 0v0.7h-0.5v2.7h-0.9v-2.7h-0.5v-0.7zm3 0v3.4h-0.8v-2.3l-0.3 2.3h-0.5l-0.3-2.2v2.2h-0.8v-3.4h1.1q0.1 0.3 0.2 0.8l0.1 0.8 0.2-1.6zm0.4 0h1.5v0.7h-0.6v0.7h0.5v0.6h-0.5v0.8h0.6v0.6h-1.5zm3.8 0v3.4h-0.8l-0.4-1.5v1.5h-0.7v-3.4h0.7l0.5 1.6v-1.6zm2.2 0v0.7h-0.5v2.7h-0.9v-2.7h-0.5v-0.7z"/>
	<g id="Clip-Path" clip-path="url(#cp1)">
		<g id="Layer">
			<path id="Layer" d="m14.8 4.7h-14.6v-3.4h14.6z"/>
			<path id="Layer" d="m28.5 4.7h-12.6v-3.4h12.6z"/>
			<path id="Layer" d="m28.7 1.3l11.3-0.1v3.4l-11.2 0.2z"/>
		</g>
	</g>
</svg>