<svg version="1.2" xmlns="http://www.w3.org/2000/svg" viewBox="0 0 40 16" width="40" height="16">
	<title>h2_artists-svg</title>
	<defs>
		<clipPath clipPathUnits="userSpaceOnUse" id="cp1">
			<path d="m4.66 3.48l1.35 9.06h-2.41l-0.12-1.63h-0.85l-0.14 1.63h-2.44l1.2-9.06zm-1.25 5.82q-0.18-1.54-0.36-3.8-0.35 2.6-0.44 3.8zm3.34-5.82h1.67q1.67 0 2.25 0.12 0.6 0.13 0.97 0.66 0.37 0.53 0.37 1.69 0 1.06-0.26 1.42-0.27 0.37-1.04 0.44 0.7 0.17 0.94 0.46 0.24 0.29 0.3 0.54 0.06 0.24 0.06 1.34v2.39h-2.19v-3.01q0-0.73-0.11-0.9-0.12-0.18-0.6-0.18v4.09h-2.36zm2.36 1.55v2.01q0.39 0 0.55-0.1 0.16-0.12 0.16-0.71v-0.5q0-0.43-0.15-0.57-0.16-0.13-0.56-0.13zm8.91-1.55v1.81h-1.4v7.25h-2.36v-7.25h-1.39v-1.81zm0.88 0h2.36v9.06h-2.36zm8.64 2.74h-2.19v-0.67q0-0.47-0.08-0.6-0.09-0.13-0.28-0.13-0.22 0-0.33 0.18-0.1 0.17-0.1 0.52 0 0.46 0.12 0.68 0.12 0.23 0.67 0.56 1.57 0.93 1.98 1.53 0.41 0.6 0.41 1.93 0 0.97-0.23 1.43-0.23 0.46-0.88 0.77-0.65 0.31-1.51 0.31-0.94 0-1.62-0.36-0.66-0.36-0.87-0.91-0.21-0.55-0.21-1.57v-0.6h2.19v1.11q0 0.51 0.09 0.65 0.1 0.15 0.33 0.15 0.24 0 0.35-0.19 0.12-0.18 0.12-0.55 0-0.8-0.22-1.04-0.23-0.25-1.1-0.83-0.88-0.58-1.17-0.84-0.28-0.26-0.47-0.73-0.19-0.46-0.19-1.18 0-1.05 0.26-1.53 0.27-0.48 0.87-0.75 0.59-0.27 1.43-0.27 0.92 0 1.56 0.3 0.65 0.29 0.86 0.75 0.21 0.44 0.21 1.52zm6.03-2.74v1.81h-1.4v7.25h-2.36v-7.25h-1.39v-1.81zm5.87 2.74h-2.18v-0.67q0-0.47-0.09-0.6-0.08-0.13-0.28-0.13-0.21 0-0.32 0.18-0.11 0.17-0.11 0.52 0 0.46 0.12 0.69 0.12 0.23 0.67 0.55 1.57 0.94 1.98 1.53 0.41 0.6 0.41 1.94 0 0.96-0.23 1.42-0.22 0.46-0.87 0.77-0.65 0.31-1.51 0.31-0.95 0-1.62-0.36-0.67-0.35-0.87-0.91-0.21-0.55-0.21-1.57v-0.59h2.19v1.1q0 0.51 0.09 0.65 0.09 0.15 0.33 0.15 0.23 0 0.34-0.19 0.12-0.18 0.12-0.54 0-0.8-0.22-1.05-0.22-0.25-1.1-0.82-0.88-0.59-1.16-0.85-0.29-0.26-0.48-0.73-0.18-0.46-0.18-1.18 0-1.04 0.26-1.53 0.27-0.48 0.86-0.75 0.59-0.27 1.43-0.27 0.92 0 1.57 0.3 0.64 0.29 0.85 0.75 0.21 0.44 0.21 1.52z"/>
		</clipPath>
	</defs>
	<style>
		.s0 { fill: #af2043 } 
	</style>
	<path id="Layer" fill-rule="evenodd" class="s0" d="m4.7 3.5l1.3 9h-2.4l-0.1-1.6h-0.9l-0.1 1.6h-2.4l1.2-9zm-1.3 5.8q-0.2-1.5-0.4-3.8-0.3 2.6-0.4 3.8zm3.3-5.8h1.7q1.7 0 2.3 0.1 0.6 0.1 0.9 0.7 0.4 0.5 0.4 1.6 0 1.1-0.3 1.5-0.2 0.3-1 0.4 0.7 0.2 0.9 0.5 0.3 0.3 0.3 0.5 0.1 0.3 0.1 1.3v2.4h-2.2v-3q0-0.7-0.1-0.9-0.1-0.1-0.6-0.1v4h-2.4zm2.4 1.6v2q0.4 0 0.6-0.1 0.1-0.1 0.1-0.7v-0.5q0-0.4-0.1-0.6-0.2-0.1-0.6-0.1zm8.9-1.6v1.9h-1.4v7.2h-2.3v-7.2h-1.4v-1.9zm0.8 0h2.4v9.1h-2.4zm8.7 2.7h-2.2v-0.6q0-0.5-0.1-0.6-0.1-0.2-0.3-0.2-0.2 0-0.3 0.2-0.1 0.2-0.1 0.5 0 0.5 0.1 0.7 0.1 0.3 0.7 0.6 1.6 0.9 2 1.5 0.4 0.6 0.4 1.9 0 1-0.3 1.5-0.2 0.4-0.8 0.7-0.7 0.4-1.5 0.4-1 0-1.7-0.4-0.6-0.4-0.8-0.9-0.2-0.6-0.2-1.6v-0.6h2.2v1.1q0 0.5 0 0.7 0.1 0.1 0.4 0.1 0.2 0 0.3-0.2 0.1-0.2 0.1-0.5 0-0.8-0.2-1.1-0.2-0.2-1.1-0.8-0.9-0.6-1.1-0.8-0.3-0.3-0.5-0.8-0.2-0.4-0.2-1.1 0-1.1 0.3-1.6 0.2-0.4 0.8-0.7 0.6-0.3 1.4-0.3 1 0 1.6 0.3 0.7 0.3 0.9 0.8 0.2 0.4 0.2 1.5zm6-2.8v1.9h-1.4v7.2h-2.3v-7.2h-1.4v-1.9zm5.8 2.8h-2.2v-0.7q0-0.5 0-0.6-0.1-0.1-0.3-0.1-0.2 0-0.3 0.2-0.1 0.1-0.1 0.5 0 0.4 0.1 0.7 0.1 0.2 0.6 0.5 1.6 1 2 1.6 0.4 0.6 0.4 1.9 0 1-0.2 1.4-0.2 0.5-0.9 0.8-0.6 0.3-1.5 0.3-0.9 0-1.6-0.4-0.7-0.3-0.9-0.9-0.2-0.5-0.2-1.6v-0.5h2.2v1.1q0 0.5 0.1 0.6 0.1 0.2 0.3 0.2 0.3 0 0.4-0.2 0.1-0.2 0.1-0.6 0-0.8-0.2-1-0.3-0.3-1.1-0.8-0.9-0.6-1.2-0.9-0.3-0.3-0.5-0.7-0.2-0.5-0.2-1.2 0-1 0.3-1.5 0.3-0.5 0.9-0.8 0.6-0.2 1.4-0.2 0.9 0 1.6 0.2 0.6 0.3 0.8 0.8 0.2 0.4 0.2 1.5z"/>
	<g id="Clip-Path" clip-path="url(#cp1)">
		<g id="Layer">
			<path id="Layer" d="m0.1 3.3h39.9v11h-39.9z"/>
		</g>
	</g>
</svg>