<svg version="1.2" xmlns="http://www.w3.org/2000/svg" viewBox="0 0 50 18" width="50" height="18">
	<title>opened-svg</title>
	<defs>
		<clipPath clipPathUnits="userSpaceOnUse" id="cp1">
			<path d="m13.95 2.82v1.55l-1.15 5.57h-1.79l1.28-5.84h-1.78v-1.28zm2.61 0h1.41q1.36 0 1.83 0.13 0.49 0.12 0.73 0.4 0.25 0.28 0.32 0.63 0.06 0.34 0.06 1.35v2.49q0 0.96-0.09 1.29-0.09 0.32-0.32 0.5-0.23 0.18-0.56 0.26-0.34 0.07-1.01 0.07h-2.37zm1.88 1.21v4.68q0.41 0 0.5-0.15 0.09-0.17 0.09-0.88v-2.76q0-0.49-0.03-0.62-0.03-0.14-0.14-0.2-0.11-0.07-0.42-0.07zm6.68-1.21l1.08 7.11h-1.92l-0.1-1.28h-0.67l-0.11 1.28h-1.95l0.96-7.11zm-1 4.57q-0.14-1.21-0.28-2.98-0.29 2.04-0.36 2.98zm6.11-4.57l-1.37 4.54v2.57h-1.74v-2.57l-1.32-4.54h1.73q0.4 2.08 0.45 2.8 0.16-1.14 0.53-2.8zm4.57 2.15h-1.74v-0.53q0-0.37-0.07-0.47-0.07-0.1-0.22-0.1-0.17 0-0.26 0.14-0.09 0.13-0.09 0.41 0 0.36 0.1 0.54 0.1 0.18 0.53 0.43 1.25 0.74 1.58 1.21 0.32 0.47 0.32 1.51 0 0.76-0.18 1.12-0.18 0.36-0.69 0.61-0.52 0.24-1.21 0.24-0.75 0-1.28-0.28-0.53-0.28-0.7-0.72-0.16-0.43-0.16-1.23v-0.47h1.74v0.87q0 0.4 0.07 0.51 0.08 0.12 0.26 0.12 0.19 0 0.28-0.15 0.09-0.14 0.09-0.43 0-0.63-0.17-0.82-0.18-0.19-0.88-0.65-0.7-0.45-0.93-0.66-0.22-0.21-0.37-0.57-0.15-0.37-0.15-0.93 0-0.82 0.21-1.2 0.21-0.38 0.68-0.59 0.48-0.21 1.14-0.21 0.74 0 1.25 0.23 0.51 0.23 0.68 0.59 0.17 0.35 0.17 1.2z"/>
		</clipPath>
	</defs>
	<style>
		.s0 { fill: #bd3455 } 
		.s1 { fill: #ffffff } 
	</style>
	<path id="Layer" fill-rule="evenodd" class="s0" d="m2.3 8.5q0 0.5 0 0.7 0 0.2-0.2 0.4-0.1 0.2-0.3 0.3-0.2 0.1-0.6 0.1-0.2 0-0.5-0.1-0.2-0.1-0.3-0.3-0.2-0.1-0.2-0.4 0-0.2 0-0.7v-0.6q0-0.6 0-0.8 0-0.2 0.1-0.4 0.2-0.2 0.4-0.3 0.2-0.1 0.5-0.1 0.3 0 0.6 0.1 0.2 0.1 0.3 0.3 0.2 0.2 0.2 0.4 0 0.2 0 0.8zm-0.9-1.2q0-0.3 0-0.3-0.1-0.1-0.2-0.1 0 0-0.1 0.1 0 0 0 0.3v1.6q0 0.4 0 0.4 0 0.1 0.1 0.1 0.1 0 0.2-0.1 0-0.1 0-0.4zm1.3-0.9h0.9q0.4 0 0.6 0.1 0.2 0 0.3 0.1 0.1 0.1 0.2 0.3 0 0.2 0 0.5v0.3q0 0.4-0.1 0.5 0 0.2-0.2 0.2-0.2 0.1-0.5 0.1h-0.3v1.5h-0.9zm0.9 0.6v0.9q0.1 0 0.1 0 0.1 0 0.2-0.1 0 0 0-0.2v-0.3q0-0.2 0-0.3-0.1 0-0.3 0zm1.4-0.6h1.5v0.7h-0.6v0.7h0.6v0.6h-0.6v0.8h0.7v0.7h-1.6zm4 0v3.6h-0.9l-0.4-1.6v1.6h-0.8v-3.6h0.8l0.5 1.6v-1.6zm5-3.5v1.5l-1.1 5.6h-1.8l1.2-5.9h-1.7v-1.2zm2.6 0h1.4q1.3 0 1.8 0.1 0.5 0.1 0.8 0.4 0.2 0.3 0.3 0.6 0 0.4 0 1.4v2.5q0 0.9-0.1 1.2-0.1 0.4-0.3 0.6-0.2 0.1-0.5 0.2-0.4 0.1-1 0.1h-2.4zm1.9 1.2v4.7q0.4 0 0.5-0.2 0.1-0.1 0.1-0.9v-2.7q0-0.5-0.1-0.6 0-0.2-0.1-0.2-0.1-0.1-0.4-0.1zm6.6-1.2l1.1 7.1h-1.9l-0.1-1.3h-0.7l-0.1 1.3h-1.9l0.9-7.1zm-1 4.6q-0.1-1.3-0.3-3-0.2 2-0.3 3zm6.1-4.6l-1.4 4.5v2.6h-1.7v-2.6l-1.3-4.5h1.7q0.4 2.1 0.5 2.8 0.1-1.2 0.5-2.8zm4.5 2.1h-1.7v-0.5q0-0.4-0.1-0.5 0-0.1-0.2-0.1-0.2 0-0.2 0.2-0.1 0.1-0.1 0.4 0 0.3 0.1 0.5 0.1 0.2 0.5 0.5 1.3 0.7 1.6 1.2 0.3 0.4 0.3 1.5 0 0.7-0.2 1.1-0.2 0.4-0.7 0.6-0.5 0.2-1.2 0.2-0.7 0-1.3-0.2-0.5-0.3-0.7-0.8-0.1-0.4-0.1-1.2v-0.5h1.7v0.9q0 0.4 0.1 0.5 0.1 0.1 0.3 0.1 0.1 0 0.2-0.1 0.1-0.2 0.1-0.4 0-0.7-0.2-0.9-0.1-0.2-0.8-0.6-0.7-0.5-1-0.7-0.2-0.2-0.3-0.5-0.2-0.4-0.2-1 0-0.8 0.2-1.2 0.2-0.3 0.7-0.6 0.5-0.2 1.2-0.2 0.7 0 1.2 0.3 0.5 0.2 0.7 0.6 0.1 0.3 0.1 1.2zm3.8 1.4l0.6 3.5h-1v-0.6h-0.4v0.6h-1l0.5-3.5zm-0.5 2.2q-0.1-0.6-0.1-1.5-0.2 1.1-0.2 1.5zm5.5-2.2l-0.4 3.5h-1.2q-0.1-0.8-0.3-1.9 0 0.5-0.2 1.9h-1.2l-0.4-3.5h0.9l0.1 1.2 0.1 1.2q0-0.9 0.3-2.4h0.9q0 0.1 0.1 1.1l0.1 1.4q0.1-1.3 0.3-2.5zm0.2 0h1.5v0.7h-0.6v0.6h0.6v0.7h-0.6v0.8h0.7v0.7h-1.6zm1.9 0h1.5v0.7h-0.6v0.7h0.6v0.7h-0.6v0.8h0.7v0.7h-1.6zm4.1 0l-0.5 1.6 0.6 1.9h-1l-0.4-1.5v1.5h-0.9v-3.5h0.9v1.4l0.4-1.4z"/>
	<g id="Clip-Path" clip-path="url(#cp1)">
		<g id="Layer">
			<path id="Layer" d="m35.2 10.3h-24.7v-7.9h24.7z"/>
		</g>
	</g>
	<path id="Layer" fill-rule="evenodd" class="s1" d="m0.4 17.3l-0.2-0.1 0.2-2h0.2l0.3 0.8 0.4 1q0.2-0.6 0.3-1l0.3-0.8h0.3l0.2 2h-0.2l-0.1-0.8-0.1-0.9q-0.2 0.5-0.3 0.9l-0.3 0.8h-0.3l-0.2-0.8-0.4-0.9q0 0.4 0 0.9zm3.7-0.7q0 0.3-0.2 0.6-0.2 0.2-0.5 0.2-0.3 0-0.5-0.2-0.2-0.3-0.2-0.6 0-0.3 0.2-0.6 0.2-0.2 0.5-0.2 0.3 0 0.5 0.2 0.2 0.3 0.2 0.6zm-1.2 0q0 0.2 0.1 0.4 0.2 0.2 0.4 0.2 0.2 0 0.4-0.2 0.1-0.1 0.1-0.4 0-0.3-0.1-0.4-0.2-0.2-0.4-0.2-0.3 0-0.4 0.2-0.1 0.1-0.1 0.4zm2.7 0.7h-0.1v-1q0-0.1-0.1-0.2-0.1-0.1-0.3-0.1-0.2 0-0.3 0.1-0.1 0.2-0.1 0.4v0.8h-0.2v-1.5h0.2v0.3q0.1-0.3 0.4-0.3 0.3 0 0.4 0.1 0.1 0.2 0.1 0.4zm1.7 0h-0.2v-0.2q-0.1 0.2-0.5 0.2-0.3 0-0.4-0.2-0.2-0.2-0.2-0.6 0-0.3 0.2-0.5 0.2-0.3 0.5-0.3 0.3 0 0.4 0.3v-0.8h0.2zm-1.1-0.8q0 0.3 0.1 0.5 0.1 0.1 0.3 0.1 0.2 0 0.4-0.1 0.1-0.2 0.1-0.5 0-0.2 0-0.3-0.1-0.1-0.1-0.2-0.1 0-0.2-0.1-0.1 0-0.1 0-0.2 0-0.4 0.2-0.1 0.1-0.1 0.4zm2.4 0.6q-0.1 0.2-0.4 0.2-0.2 0-0.4-0.1-0.1-0.2-0.1-0.4 0-0.2 0.2-0.3 0.1-0.1 0.4-0.1h0.3v-0.1q0-0.2-0.1-0.3-0.1-0.1-0.3-0.1-0.2 0-0.4 0.1v-0.2q0.2-0.1 0.4-0.1 0.6 0 0.6 0.6v1h-0.2zm-0.4 0q0.2 0 0.3-0.1 0.1-0.1 0.1-0.3v-0.2h-0.3q-0.2 0-0.3 0.1-0.1 0.1-0.1 0.2 0 0.1 0.1 0.2 0.1 0.1 0.2 0.1zm1.7 0.1q-0.1 0.3-0.3 0.4-0.2 0.1-0.4 0.1 0 0-0.1 0v-0.1q0.1 0 0.1 0 0.3 0 0.5-0.4l-0.7-1.5h0.3l0.2 0.5 0.3 0.8q0-0.1 0.2-0.8l0.2-0.5h0.2zm2.2-0.7h-0.6v-0.1h0.6zm2.4 0.2q0 0.2-0.2 0.4-0.2 0.1-0.5 0.1-0.3 0-0.5-0.1v-0.2q0.1 0 0.2 0.1 0.2 0 0.3 0 0.2 0 0.4-0.1 0.1 0 0.1-0.2 0-0.2-0.1-0.2-0.1-0.1-0.3-0.2 0 0-0.1 0-0.1-0.1-0.1-0.1 0 0-0.1 0-0.1-0.1-0.1-0.1 0 0-0.1-0.1 0 0-0.1-0.1 0 0 0-0.1 0 0 0-0.1 0-0.3 0.2-0.4 0.2-0.1 0.4-0.1 0.3 0 0.5 0v0.3q-0.1-0.1-0.2-0.1-0.2-0.1-0.3-0.1-0.2 0-0.3 0.1-0.1 0.1-0.1 0.3 0 0.1 0 0.1 0 0.1 0.1 0.1 0.1 0.1 0.2 0.1 0 0.1 0.1 0.1 0.1 0 0.2 0.1 0 0 0.1 0.1 0.1 0 0.2 0.1 0 0 0 0.1 0.1 0.1 0.1 0.2zm1.5 0.5h-0.1v-0.3q-0.2 0.3-0.5 0.3-0.3 0-0.4-0.1-0.1-0.1-0.1-0.4v-1h0.2v1q0 0.2 0.1 0.2 0.1 0.1 0.2 0.1 0.2 0 0.3-0.1 0.2-0.1 0.2-0.4v-0.8h0.1zm1.7 0h-0.2v-1q0-0.2-0.1-0.3-0.1-0.1-0.2-0.1-0.2 0-0.4 0.2-0.1 0.1-0.1 0.3v0.9h-0.2v-1.5h0.2v0.2q0.1-0.3 0.5-0.3 0.2 0 0.3 0.2 0.2 0.1 0.2 0.3zm1.6 0h-0.1v-0.2q-0.2 0.2-0.5 0.2-0.3 0-0.5-0.2-0.2-0.2-0.2-0.5 0-0.4 0.2-0.6 0.2-0.2 0.5-0.2 0.3 0 0.5 0.2v-0.8h0.1zm-1.1-0.7q0 0.2 0.2 0.4 0.1 0.1 0.3 0.1 0.2 0 0.3-0.1 0.2-0.1 0.2-0.5 0-0.1-0.1-0.3 0-0.1-0.1-0.2-0.1 0-0.2 0 0-0.1-0.1-0.1-0.2 0-0.3 0.2-0.2 0.1-0.2 0.5zm2.5 0.5q-0.2 0.2-0.5 0.2-0.2 0-0.3-0.1-0.2-0.1-0.2-0.3 0-0.3 0.2-0.4 0.2-0.1 0.5-0.1h0.3v-0.1q0-0.2-0.1-0.3-0.1-0.1-0.3-0.1-0.3 0-0.5 0.2v-0.2q0.2-0.2 0.5-0.2 0.5 0 0.5 0.6v1h-0.1zm-0.4 0q0.1 0 0.2-0.1 0.2-0.1 0.2-0.2v-0.3h-0.3q-0.3 0-0.4 0.1-0.1 0.1-0.1 0.2 0 0.2 0.1 0.2 0.1 0.1 0.3 0.1zm1.6 0.1q-0.1 0.3-0.3 0.5-0.1 0.1-0.3 0.1-0.1 0-0.1 0v-0.2q0 0 0.1 0 0.3 0 0.4-0.4l-0.6-1.5h0.2l0.2 0.6 0.3 0.7q0-0.1 0.3-0.7l0.2-0.6h0.2zm2.8 0.1h-0.2v-1.8l-0.5 0.3v-0.2l0.5-0.3h0.2zm1.6 0h-1.3v-0.1q1-0.8 1-1.3 0-0.2-0.1-0.3-0.1-0.1-0.3-0.1-0.3 0-0.5 0.2v-0.2q0.2-0.2 0.5-0.2 0.2 0 0.4 0.2 0.2 0.1 0.2 0.4 0 0.5-0.9 1.3h1zm0.5 0.6h-0.2v-2.2h0.2v0.3q0.2-0.3 0.5-0.3 0.3 0 0.5 0.2 0.1 0.3 0.1 0.6 0 0.3-0.1 0.6-0.2 0.2-0.5 0.2-0.3 0-0.5-0.3zm0-1.3q0 0.1 0.1 0.3 0 0.1 0.1 0.2 0.1 0 0.1 0.1 0.1 0 0.2 0 0.2 0 0.3-0.2 0.1-0.1 0.1-0.4 0-0.3-0.1-0.5-0.1-0.1-0.3-0.1-0.2 0-0.3 0.1-0.2 0.1-0.2 0.5zm3.5 0.7h-0.2v-1q0-0.3-0.3-0.3-0.1 0-0.3 0.1-0.1 0.2-0.1 0.4v0.8h-0.2v-1q0-0.3-0.3-0.3-0.2 0-0.3 0.1-0.1 0.2-0.1 0.4v0.8h-0.2v-1.5h0.2v0.3q0.1-0.3 0.4-0.3 0.4 0 0.5 0.3 0.1-0.3 0.4-0.3 0.3 0 0.4 0.1 0.1 0.2 0.1 0.4zm1.8-0.8h-0.6v-0.1h0.6zm1.6 0.7h-0.1v-1.8l-0.5 0.3v-0.2l0.5-0.3h0.1zm1.8-0.9q0 0.4-0.2 0.7-0.2 0.3-0.5 0.3-0.3 0-0.5-0.3-0.2-0.3-0.2-0.7 0-0.5 0.2-0.8 0.2-0.2 0.5-0.2 0.3 0 0.5 0.2 0.2 0.3 0.2 0.8zm-1.2 0q0 0.3 0.2 0.6 0.1 0.2 0.3 0.2 0.2 0 0.4-0.2 0.1-0.2 0.1-0.6 0-0.4-0.1-0.6-0.2-0.3-0.4-0.3-0.2 0-0.3 0.3-0.2 0.2-0.2 0.6zm1.8 1.5h-0.2v-2.1h0.2v0.2q0.1-0.2 0.4-0.2 0.3 0 0.5 0.2 0.2 0.2 0.2 0.6 0 0.3-0.2 0.5-0.2 0.3-0.5 0.3-0.3 0-0.4-0.3zm0-1.3q0 0.1 0 0.3 0.1 0.1 0.1 0.1 0.1 0.1 0.2 0.1 0.1 0.1 0.1 0.1 0.2 0 0.4-0.2 0.1-0.2 0.1-0.5 0-0.2-0.1-0.4-0.2-0.2-0.4-0.2-0.2 0-0.3 0.2-0.1 0.1-0.1 0.5zm3.5 0.7h-0.2v-1q0-0.4-0.3-0.4-0.2 0-0.3 0.2-0.1 0.1-0.1 0.4v0.8h-0.2v-1q0-0.4-0.3-0.4-0.2 0-0.3 0.2-0.2 0.1-0.2 0.4v0.8h-0.1v-1.5h0.1v0.2q0.2-0.2 0.5-0.2 0.3 0 0.4 0.3 0.2-0.3 0.5-0.3 0.2 0 0.4 0.1 0.1 0.1 0.1 0.4z"/>
</svg>