<svg width="253" height="59" viewBox="0 0 253 59" fill="none" xmlns="http://www.w3.org/2000/svg">
<path d="M0.0844727 1.74512V0.745117H-0.915527V1.74512H0.0844727ZM23.6001 2.66797L23.3185 3.6275L23.3213 3.62831L23.6001 2.66797ZM28.3511 5.33398L27.6085 6.00379L27.6157 6.01167L28.3511 5.33398ZM30.5044 9.57227L29.5276 9.78636L29.5293 9.79422L29.5312 9.80206L30.5044 9.57227ZM25.9585 33.498L25.5543 32.5834L25.5504 32.5851L25.9585 33.498ZM14.4741 34.7969V33.7969H13.4741V34.7969H14.4741ZM14.4741 57.082V58.082H15.4741V57.082H14.4741ZM0.0844727 57.082H-0.915527V58.082H0.0844727V57.082ZM14.4741 11.2129V10.2129H13.4741V11.2129H14.4741ZM14.4741 25.2949H13.4741V26.2409L14.4187 26.2934L14.4741 25.2949ZM18.2681 24.3721L17.4846 23.7507L17.4817 23.7542L18.2681 24.3721ZM0.0844727 2.74512H14.5767V0.745117H0.0844727V2.74512ZM14.5767 2.74512C18.4634 2.74512 21.3588 3.05239 23.3185 3.6275L23.8817 1.70844C21.6486 1.05308 18.5285 0.745117 14.5767 0.745117V2.74512ZM23.3213 3.62831C25.3317 4.21197 26.726 5.02528 27.6085 6.00375L29.0936 4.66422C27.8798 3.31847 26.1068 2.35443 23.8789 1.70762L23.3213 3.62831ZM27.6157 6.01167C28.5572 7.03331 29.1979 8.28226 29.5276 9.78636L31.4812 9.35817C31.0817 7.53545 30.2868 5.95888 29.0864 4.6563L27.6157 6.01167ZM29.5312 9.80206C29.8905 11.324 30.0854 13.7791 30.0854 17.2285H32.0854C32.0854 13.7508 31.893 11.1018 31.4776 9.34247L29.5312 9.80206ZM30.0854 17.2285V22.0479H32.0854V17.2285H30.0854ZM30.0854 22.0479C30.0854 25.5509 29.7178 27.9466 29.08 29.3616L30.9034 30.1834C31.724 28.3627 32.0854 25.6086 32.0854 22.0479H30.0854ZM29.08 29.3616C28.4722 30.7101 27.3376 31.7954 25.5543 32.5834L26.3627 34.4127C28.4987 33.4689 30.0528 32.0705 30.9034 30.1834L29.08 29.3616ZM25.5504 32.5851C23.7885 33.3728 21.4022 33.7969 18.3364 33.7969V35.7969C21.5597 35.7969 24.2548 35.3551 26.3666 34.411L25.5504 32.5851ZM18.3364 33.7969H14.4741V35.7969H18.3364V33.7969ZM13.4741 34.7969V57.082H15.4741V34.7969H13.4741ZM14.4741 56.082H0.0844727V58.082H14.4741V56.082ZM1.08447 57.082L1.08447 1.74512H-0.915527L-0.915527 57.082H1.08447ZM13.4741 11.2129V25.2949H15.4741V11.2129H13.4741ZM14.4187 26.2934C14.8408 26.3168 15.2135 26.3291 15.5337 26.3291V24.3291C15.2615 24.3291 14.9278 24.3186 14.5296 24.2965L14.4187 26.2934ZM15.5337 26.3291C16.9706 26.3291 18.2703 25.9878 19.0544 24.9899L17.4817 23.7542C17.2632 24.0324 16.74 24.3291 15.5337 24.3291V26.3291ZM19.0516 24.9935C19.4577 24.4814 19.6952 23.7959 19.8395 23.0494C19.9869 22.2868 20.0542 21.3663 20.0542 20.3047H18.0542C18.0542 21.2939 17.9905 22.0767 17.8758 22.6699C17.7581 23.2791 17.6026 23.6019 17.4846 23.7507L19.0516 24.9935ZM20.0542 20.3047V15.7588H18.0542V20.3047H20.0542ZM20.0542 15.7588C20.0542 14.769 19.9775 13.903 19.8043 13.1834C19.6338 12.4753 19.348 11.817 18.8586 11.3465L17.4724 12.7882C17.5756 12.8874 17.7341 13.1292 17.8598 13.6515C17.9828 14.1625 18.0542 14.8573 18.0542 15.7588H20.0542ZM18.8586 11.3465C18.3803 10.8866 17.7282 10.6153 17.0239 10.4523C16.3086 10.2867 15.4518 10.2129 14.4741 10.2129V12.2129C15.365 12.2129 16.0576 12.2815 16.5728 12.4008C17.099 12.5225 17.3583 12.6785 17.4724 12.7882L18.8586 11.3465ZM49.6108 1.74512H50.6108V0.745117H49.6108V1.74512ZM49.6108 57.082V58.082H50.6108V57.082H49.6108ZM35.2212 57.082H34.2212V58.082H35.2212V57.082ZM35.2212 1.74512V0.745117H34.2212V1.74512H35.2212ZM48.6108 1.74512V57.082H50.6108V1.74512H48.6108ZM49.6108 56.082H35.2212V58.082H49.6108V56.082ZM36.2212 57.082V1.74512H34.2212V57.082H36.2212ZM35.2212 2.74512H49.6108V0.745117H35.2212V2.74512ZM55.3872 1.74512V0.745117H54.3872V1.74512H55.3872ZM79.3813 1.74512H80.3813V0.745117H79.3813V1.74512ZM79.3813 12.8193V13.8193H80.3813V12.8193H79.3813ZM69.7769 12.8193V11.8193H68.7769V12.8193H69.7769ZM69.7769 23.3125H68.7769V24.3125H69.7769V23.3125ZM78.7661 23.3125H79.7661V22.3125H78.7661V23.3125ZM78.7661 33.8398V34.8398H79.7661V33.8398H78.7661ZM69.7769 33.8398V32.8398H68.7769V33.8398H69.7769ZM69.7769 46.0078H68.7769V47.0078H69.7769V46.0078ZM80.3384 46.0078H81.3384V45.0078H80.3384V46.0078ZM80.3384 57.082V58.082H81.3384V57.082H80.3384ZM55.3872 57.082H54.3872V58.082H55.3872V57.082ZM55.3872 2.74512L79.3813 2.74512V0.745117L55.3872 0.745117V2.74512ZM78.3813 1.74512V12.8193H80.3813V1.74512H78.3813ZM79.3813 11.8193H69.7769V13.8193H79.3813V11.8193ZM68.7769 12.8193V23.3125H70.7769V12.8193H68.7769ZM69.7769 24.3125H78.7661V22.3125H69.7769V24.3125ZM77.7661 23.3125V33.8398H79.7661V23.3125H77.7661ZM78.7661 32.8398H69.7769V34.8398H78.7661V32.8398ZM68.7769 33.8398V46.0078H70.7769V33.8398H68.7769ZM69.7769 47.0078H80.3384V45.0078H69.7769V47.0078ZM79.3384 46.0078V57.082H81.3384V46.0078H79.3384ZM80.3384 56.082H55.3872V58.082H80.3384V56.082ZM56.3872 57.082V1.74512H54.3872V57.082H56.3872ZM84.5083 1.74512V0.745117H83.5083V1.74512H84.5083ZM108.468 2.53125L108.254 3.50809L108.256 3.50851L108.468 2.53125ZM114.347 6.56445L113.526 7.13505L113.533 7.14487L114.347 6.56445ZM115.031 25.5342L115.841 26.1201L115.841 26.1201L115.031 25.5342ZM108.708 28.2002L108.614 27.2046L108.467 29.1708L108.708 28.2002ZM114.45 31.0371L115.22 30.3998L114.45 31.0371ZM116.261 34.3184L115.286 34.54L115.289 34.5531L115.292 34.5662L116.261 34.3184ZM116.637 57.082V58.082H117.637V57.082H116.637ZM103.273 57.082H102.273V58.082H103.273V57.082ZM102.555 33.1904L101.715 33.7326L101.721 33.742L101.727 33.7513L102.555 33.1904ZM98.8979 32.1309V31.1309H97.8979V32.1309H98.8979ZM98.8979 57.082V58.082H99.8979V57.082H98.8979ZM84.5083 57.082H83.5083V58.082H84.5083V57.082ZM98.8979 11.2129V10.2129H97.8979V11.2129H98.8979ZM98.8979 23.5176H97.8979V24.5176H98.8979V23.5176ZM102.282 22.8682L102.843 23.6957L102.849 23.6914L102.282 22.8682ZM102.316 12.0332L101.652 12.7806L101.658 12.7866L101.665 12.7925L102.316 12.0332ZM84.5083 2.74512H94.6938V0.745117H84.5083V2.74512ZM94.6938 2.74512C101.496 2.74512 105.983 3.01055 108.254 3.50809L108.682 1.55441C106.168 1.00377 101.472 0.745117 94.6938 0.745117V2.74512ZM108.256 3.50851C110.407 3.97518 112.156 5.1629 113.526 7.13501L115.168 5.9939C113.531 3.63658 111.36 2.1355 108.68 1.55399L108.256 3.50851ZM113.533 7.14487C114.876 9.02883 115.637 12.1992 115.637 16.8525H117.637C117.637 12.0723 116.872 8.38393 115.161 5.98403L113.533 7.14487ZM115.637 16.8525C115.637 18.9701 115.505 20.7046 115.252 22.071C114.997 23.451 114.632 24.3793 114.22 24.9482L115.841 26.1201C116.501 25.208 116.939 23.9487 117.219 22.4349C117.502 20.9073 117.637 19.0416 117.637 16.8525H115.637ZM114.22 24.9482C113.407 26.0725 111.67 26.9167 108.614 27.2046L108.801 29.1958C112.034 28.8912 114.512 27.9581 115.841 26.1201L114.22 24.9482ZM108.467 29.1708C111.269 29.8656 112.913 30.748 113.679 31.6744L115.22 30.3998C114.027 28.9564 111.843 27.9475 108.948 27.2296L108.467 29.1708ZM113.679 31.6744C114.604 32.7935 115.106 33.7469 115.286 34.54L117.236 34.0967C116.961 32.8846 116.255 31.6506 115.22 30.3998L113.679 31.6744ZM115.292 34.5662C115.389 34.943 115.481 35.7707 115.544 37.1414C115.606 38.4811 115.637 40.2612 115.637 42.4873H117.637C117.637 40.2472 117.606 38.4328 117.542 37.0495C117.48 35.6972 117.384 34.6736 117.23 34.0705L115.292 34.5662ZM115.637 42.4873V57.082H117.637V42.4873H115.637ZM116.637 56.082H103.273V58.082H116.637V56.082ZM104.273 57.082V38.6934H102.273V57.082H104.273ZM104.273 38.6934C104.273 37.1914 104.213 35.9442 104.085 34.9666C103.964 34.035 103.764 33.1925 103.383 32.6296L101.727 33.7513C101.824 33.8947 101.984 34.3226 102.102 35.2253C102.214 36.082 102.273 37.2331 102.273 38.6934H104.273ZM103.395 32.6483C102.984 32.011 102.304 31.6459 101.577 31.4353C100.842 31.2221 99.9368 31.1309 98.8979 31.1309V33.1309C99.8415 33.1309 100.538 33.2162 101.021 33.3563C101.513 33.4988 101.67 33.6635 101.715 33.7326L103.395 32.6483ZM97.8979 32.1309V57.082H99.8979V32.1309H97.8979ZM98.8979 56.082H84.5083V58.082H98.8979V56.082ZM85.5083 57.082V1.74512H83.5083V57.082H85.5083ZM97.8979 11.2129V23.5176H99.8979V11.2129H97.8979ZM98.8979 24.5176C100.538 24.5176 101.937 24.3108 102.843 23.6956L101.72 22.0407C101.351 22.2914 100.493 22.5176 98.8979 22.5176V24.5176ZM102.849 23.6914C103.502 23.2416 103.821 22.4467 104 21.6638C104.189 20.8358 104.273 19.7801 104.273 18.5273H102.273C102.273 19.7128 102.192 20.5996 102.05 21.2185C101.98 21.5263 101.901 21.7391 101.829 21.8785C101.756 22.0184 101.707 22.0495 101.714 22.045L102.849 23.6914ZM104.273 18.5273V15.4854H102.273V18.5273H104.273ZM104.273 15.4854C104.273 14.5559 104.189 13.7319 103.997 13.0392C103.806 12.3497 103.488 11.7205 102.967 11.2739L101.665 12.7925C101.782 12.8927 101.942 13.1124 102.07 13.5735C102.197 14.0316 102.273 14.6603 102.273 15.4854H104.273ZM102.98 11.2858C102.069 10.4758 100.594 10.2129 98.8979 10.2129V12.2129C100.529 12.2129 101.332 12.4969 101.652 12.7806L102.98 11.2858ZM155.841 25.876V26.876H156.841V25.876H155.841ZM141.452 25.876H140.452V26.876H141.452V25.876ZM140.973 11.0078L140.051 11.3945L140.059 11.4128L140.067 11.4307L140.973 11.0078ZM136.701 11.2129L135.765 10.859L136.701 11.2129ZM136.701 47.6484L135.769 48.0109L136.701 47.6484ZM140.939 47.6484L140.016 47.2638L140.011 47.2749L140.007 47.286L140.939 47.6484ZM141.452 34.9336V33.9336H140.452V34.9336H141.452ZM155.841 34.9336H156.841V33.9336H155.841V34.9336ZM154.611 49.2549L153.665 48.9305L153.662 48.9387L154.611 49.2549ZM149.245 55.5439L148.701 54.7046L148.698 54.7066L149.245 55.5439ZM123.166 49.6309L122.215 49.9423L122.216 49.9447L123.166 49.6309ZM122.243 12.3066L123.233 12.4433L123.234 12.4418L122.243 12.3066ZM124.669 6.53027L123.866 5.93503L123.861 5.94151L124.669 6.53027ZM130.309 2.18945L130.71 3.10542L130.714 3.10362L130.309 2.18945ZM154.542 9.19629L153.599 9.5282L153.6 9.53095L154.542 9.19629ZM155.841 24.876H141.452V26.876H155.841V24.876ZM142.452 25.876V16.2373H140.452V25.876H142.452ZM142.452 16.2373C142.452 14.8212 142.412 13.651 142.328 12.7368C142.248 11.862 142.119 11.0993 141.879 10.5849L140.067 11.4307C140.146 11.5999 140.257 12.0506 140.336 12.919C140.412 13.7479 140.452 14.8506 140.452 16.2373H142.452ZM141.895 10.6211C141.658 10.0557 141.256 9.61356 140.712 9.32789C140.188 9.05277 139.584 8.94824 138.957 8.94824V10.9482C139.377 10.9482 139.633 11.0203 139.782 11.0984C139.91 11.1659 139.992 11.2535 140.051 11.3945L141.895 10.6211ZM138.957 8.94824C138.254 8.94824 137.586 9.07206 137.015 9.39212C136.424 9.72344 136.004 10.2285 135.765 10.859L137.636 11.5668C137.716 11.3542 137.832 11.2269 137.993 11.1367C138.174 11.0352 138.474 10.9482 138.957 10.9482V8.94824ZM135.765 10.859C135.555 11.4152 135.427 12.1961 135.346 13.1252C135.262 14.0766 135.222 15.2647 135.222 16.6816H137.222C137.222 15.2958 137.262 14.1711 137.338 13.2996C137.416 12.4058 137.527 11.8536 137.636 11.5668L135.765 10.859ZM135.222 16.6816V42.3848H137.222V16.6816H135.222ZM135.222 42.3848C135.222 43.7455 135.262 44.8892 135.346 45.8078C135.427 46.7047 135.556 47.4644 135.769 48.0109L137.633 47.286C137.526 47.0122 137.416 46.4844 137.338 45.6267C137.262 44.7908 137.222 43.7129 137.222 42.3848H135.222ZM135.769 48.0109C136.005 48.6197 136.411 49.1131 136.982 49.4395C137.536 49.756 138.18 49.8789 138.854 49.8789V47.8789C138.411 47.8789 138.138 47.7967 137.974 47.703C137.828 47.6193 137.715 47.4974 137.633 47.286L135.769 48.0109ZM138.854 49.8789C139.512 49.8789 140.143 49.7535 140.687 49.4325C141.245 49.1029 141.638 48.6099 141.871 48.0109L140.007 47.286C139.921 47.5072 139.807 47.6296 139.67 47.7101C139.519 47.7992 139.267 47.8789 138.854 47.8789V49.8789ZM141.862 48.0331C142.096 47.4706 142.233 46.6513 142.32 45.6775C142.409 44.6738 142.452 43.4024 142.452 41.8721H140.452C140.452 43.3724 140.409 44.579 140.327 45.5007C140.243 46.4524 140.123 47.006 140.016 47.2638L141.862 48.0331ZM142.452 41.8721V34.9336H140.452V41.8721H142.452ZM141.452 35.9336H155.841V33.9336H141.452V35.9336ZM154.841 34.9336V37.0869H156.841V34.9336H154.841ZM154.841 37.0869C154.841 42.7997 154.427 46.7087 153.665 48.9306L155.557 49.5792C156.436 47.0159 156.841 42.8129 156.841 37.0869H154.841ZM153.662 48.9387C152.956 51.0567 151.351 52.9889 148.701 54.7046L149.788 56.3833C152.699 54.4987 154.67 52.2383 155.56 49.5711L153.662 48.9387ZM148.698 54.7066C146.137 56.3783 142.932 57.2441 139.025 57.2441V59.2441C143.23 59.2441 146.837 58.3098 149.791 56.3813L148.698 54.7066ZM139.025 57.2441C134.923 57.2441 131.63 56.5006 129.088 55.081L128.113 56.8272C131.039 58.461 134.695 59.2441 139.025 59.2441V57.2441ZM129.088 55.081C126.547 53.6623 124.917 51.7422 124.115 49.317L122.216 49.9447C123.192 52.8971 125.185 55.1925 128.113 56.8272L129.088 55.081ZM124.116 49.3194C123.278 46.762 122.833 42.8233 122.833 37.4287H120.833C120.833 42.8804 121.276 47.0765 122.215 49.9423L124.116 49.3194ZM122.833 37.4287V21.2617H120.833V37.4287H122.833ZM122.833 21.2617C122.833 17.2843 122.97 14.3553 123.233 12.4433L121.252 12.17C120.969 14.2228 120.833 17.2638 120.833 21.2617H122.833ZM123.234 12.4418C123.482 10.6206 124.218 8.84836 125.478 7.11904L123.861 5.94151C122.432 7.90359 121.55 9.98224 121.252 12.1715L123.234 12.4418ZM125.473 7.1255C126.723 5.4383 128.455 4.09336 130.71 3.10541L129.908 1.2735C127.378 2.3819 125.35 3.93084 123.866 5.93505L125.473 7.1255ZM130.714 3.10362C132.981 2.09858 135.608 1.58301 138.615 1.58301V-0.416992C135.378 -0.416992 132.468 0.138401 129.904 1.27529L130.714 3.10362ZM138.615 1.58301C142.729 1.58301 146.036 2.37975 148.597 3.90331L149.619 2.18458C146.665 0.426887 142.977 -0.416992 138.615 -0.416992V1.58301ZM148.597 3.90331C151.2 5.45262 152.828 7.33564 153.599 9.5282L155.486 8.86438C154.525 6.13507 152.53 3.91652 149.619 2.18458L148.597 3.90331ZM153.6 9.53095C154.406 11.8007 154.841 15.4634 154.841 20.6123H156.841C156.841 15.4162 156.41 11.4681 155.485 8.86163L153.6 9.53095ZM154.841 20.6123V25.876H156.841V20.6123H154.841ZM175.392 1.74512H176.392V0.745117H175.392V1.74512ZM175.392 57.082V58.082H176.392V57.082H175.392ZM161.002 57.082H160.002V58.082H161.002V57.082ZM161.002 1.74512V0.745117H160.002V1.74512H161.002ZM174.392 1.74512V57.082H176.392V1.74512H174.392ZM175.392 56.082H161.002V58.082H175.392V56.082ZM162.002 57.082V1.74512H160.002V57.082H162.002ZM161.002 2.74512H175.392V0.745117H161.002V2.74512ZM213.297 1.74512H214.297V0.745117H213.297V1.74512ZM213.297 57.082V58.082H214.297V57.082H213.297ZM200.685 57.082L199.727 57.3672L199.939 58.082H200.685V57.082ZM193.2 31.9258L194.158 31.6406L192.2 31.9258H193.2ZM193.2 57.082V58.082H194.2V57.082H193.2ZM181.168 57.082H180.168V58.082H181.168V57.082ZM181.168 1.74512V0.745117H180.168V1.74512H181.168ZM193.2 1.74512L194.151 1.43712L193.927 0.745117H193.2V1.74512ZM201.266 26.6621L200.315 26.9701L202.266 26.6621H201.266ZM201.266 1.74512V0.745117H200.266V1.74512H201.266ZM212.297 1.74512V57.082H214.297V1.74512H212.297ZM213.297 56.082H200.685V58.082H213.297V56.082ZM201.644 56.7968L194.158 31.6406L192.241 32.211L199.727 57.3672L201.644 56.7968ZM192.2 31.9258V57.082H194.2V31.9258H192.2ZM193.2 56.082H181.168V58.082H193.2V56.082ZM182.168 57.082V1.74512H180.168V57.082H182.168ZM181.168 2.74512L193.2 2.74512V0.745117L181.168 0.745117V2.74512ZM192.248 2.05311L200.315 26.9701L202.218 26.3541L194.151 1.43712L192.248 2.05311ZM202.266 26.6621V1.74512H200.266V26.6621H202.266ZM201.266 2.74512H213.297V0.745117H201.266V2.74512ZM252.125 22.1162V23.1162H253.125V22.1162H252.125ZM237.736 22.1162H236.736V23.1162H237.736V22.1162ZM233.566 10.9736L232.66 10.5507L233.566 10.9736ZM233.566 47.7168L232.637 48.0882L232.641 48.0975L233.566 47.7168ZM237.599 47.5459L236.682 47.1463L236.678 47.1563L236.674 47.1663L237.599 47.5459ZM238.18 35.7881H239.18V34.7881H238.18V35.7881ZM235.275 35.7881H234.275V36.7881H235.275V35.7881ZM235.275 27.3799V26.3799H234.275V27.3799H235.275ZM252.125 27.3799H253.125V26.3799H252.125V27.3799ZM252.125 57.082V58.082H253.125V57.082H252.125ZM243.068 57.082L242.12 57.4007L242.349 58.082H243.068V57.082ZM241.735 53.1172L242.683 52.7985L241.974 50.6899L240.867 52.6198L241.735 53.1172ZM238.009 56.9795L238.504 57.8486L238.508 57.8461L238.009 56.9795ZM225.944 56.501L225.452 57.3716L225.463 57.3778L225.944 56.501ZM219.108 46.6914L218.118 46.8328L218.118 46.8345L219.108 46.6914ZM224.44 3.59082L225.033 4.39571L225.035 4.39486L224.44 3.59082ZM250.861 9.36719L249.918 9.69954L249.919 9.70238L250.861 9.36719ZM252.125 21.1162H237.736V23.1162H252.125V21.1162ZM238.736 22.1162V17.0918H236.736V22.1162H238.736ZM238.736 17.0918C238.736 15.4969 238.702 14.1841 238.631 13.1607C238.562 12.168 238.455 11.3554 238.272 10.8202L236.38 11.4689C236.47 11.7312 236.567 12.3086 236.636 13.2983C236.702 14.2573 236.736 15.5194 236.736 17.0918H238.736ZM238.272 10.8202C238.068 10.2267 237.701 9.72916 237.157 9.39514C236.629 9.07117 236.013 8.94824 235.377 8.94824V10.9482C235.767 10.9482 235.988 11.0247 236.11 11.0995C236.216 11.1642 236.31 11.2649 236.38 11.4689L238.272 10.8202ZM235.377 8.94824C234.808 8.94824 234.254 9.05773 233.765 9.33433C233.267 9.61673 232.899 10.0377 232.66 10.5507L234.472 11.3965C234.552 11.2259 234.646 11.1343 234.751 11.0748C234.866 11.0096 235.058 10.9482 235.377 10.9482V8.94824ZM232.66 10.5507C232.419 11.0658 232.291 11.8322 232.211 12.7117C232.128 13.6314 232.087 14.81 232.087 16.2373H234.087C234.087 14.8391 234.127 13.7276 234.203 12.8928C234.282 12.0178 234.393 11.5651 234.472 11.3965L232.66 10.5507ZM232.087 16.2373V42.7949H234.087V16.2373H232.087ZM232.087 42.7949C232.087 44.0547 232.128 45.1208 232.212 45.9849C232.294 46.8298 232.424 47.5542 232.637 48.0882L234.494 47.3454C234.389 47.0819 234.28 46.5871 234.202 45.7914C234.127 45.015 234.087 44.0189 234.087 42.7949H232.087ZM232.641 48.0975C232.872 48.6569 233.241 49.1254 233.765 49.4432C234.279 49.7551 234.869 49.8789 235.48 49.8789V47.8789C235.134 47.8789 234.927 47.809 234.803 47.7336C234.688 47.664 234.579 47.5515 234.491 47.336L232.641 48.0975ZM235.48 49.8789C236.145 49.8789 236.779 49.7374 237.328 49.3921C237.884 49.0428 238.275 48.5324 238.524 47.9255L236.674 47.1663C236.558 47.4481 236.415 47.6041 236.263 47.6992C236.106 47.7982 235.864 47.8789 235.48 47.8789V49.8789ZM238.516 47.9455C238.769 47.3638 238.928 46.5912 239.029 45.6917C239.131 44.776 239.18 43.6594 239.18 42.3506H237.18C237.18 43.6166 237.132 44.6533 237.041 45.4694C236.948 46.3017 236.816 46.8393 236.682 47.1463L238.516 47.9455ZM239.18 42.3506V35.7881H237.18V42.3506H239.18ZM238.18 34.7881H235.275V36.7881H238.18V34.7881ZM236.275 35.7881V27.3799H234.275V35.7881H236.275ZM235.275 28.3799H252.125V26.3799H235.275V28.3799ZM251.125 27.3799V57.082H253.125V27.3799H251.125ZM252.125 56.082H243.068V58.082H252.125V56.082ZM244.016 56.7634L242.683 52.7985L240.787 53.4359L242.12 57.4007L244.016 56.7634ZM240.867 52.6198C239.963 54.1964 238.841 55.3467 237.51 56.1129L238.508 57.8461C240.185 56.8805 241.547 55.4559 242.602 53.6146L240.867 52.6198ZM237.515 56.1104C236.211 56.8527 234.633 57.2441 232.746 57.2441V59.2441C234.914 59.2441 236.846 58.7924 238.504 57.8486L237.515 56.1104ZM232.746 57.2441C230.498 57.2441 228.397 56.7055 226.425 55.6242L225.463 57.3778C227.729 58.6207 230.162 59.2441 232.746 59.2441V57.2441ZM226.436 55.6304C224.458 54.5125 222.995 53.1614 222.004 51.592L220.313 52.66C221.509 54.5541 223.237 56.1197 225.452 57.3715L226.436 55.6304ZM222.004 51.592C220.98 49.9703 220.35 48.2908 220.098 46.5483L218.118 46.8345C218.413 48.8745 219.15 50.8181 220.313 52.66L222.004 51.592ZM220.098 46.55C219.835 44.7084 219.698 41.9064 219.698 38.1123H217.698C217.698 41.9289 217.834 44.8463 218.118 46.8328L220.098 46.55ZM219.698 38.1123V21.6719H217.698V38.1123H219.698ZM219.698 21.6719C219.698 16.3955 219.984 12.6559 220.525 10.3849L218.579 9.9217C217.981 12.4359 217.698 16.3754 217.698 21.6719H219.698ZM220.525 10.3849C221.023 8.29314 222.467 6.2882 225.033 4.3957L223.847 2.78594C221.036 4.85828 219.221 7.22834 218.579 9.9217L220.525 10.3849ZM225.035 4.39486C227.532 2.5477 230.805 1.58301 234.933 1.58301V-0.416992C230.494 -0.416992 226.771 0.623524 223.845 2.78678L225.035 4.39486ZM234.933 1.58301C239.015 1.58301 242.316 2.42116 244.898 4.02944L245.955 2.33188C242.977 0.476625 239.283 -0.416992 234.933 -0.416992V1.58301ZM244.898 4.02944C247.542 5.67651 249.17 7.57675 249.918 9.69954L251.804 9.03484C250.866 6.37247 248.871 4.14836 245.955 2.33188L244.898 4.02944ZM249.919 9.70238C250.704 11.9106 251.125 15.227 251.125 19.7236H253.125C253.125 15.1513 252.704 11.5633 251.803 9.032L249.919 9.70238ZM251.125 19.7236V22.1162H253.125V19.7236H251.125Z" fill="#BD3455"/>
</svg>
