<svg version="1.2" xmlns="http://www.w3.org/2000/svg" viewBox="0 0 40 13" width="40" height="13">
	<title>h2_contacts-svg</title>
	<defs>
		<clipPath clipPathUnits="userSpaceOnUse" id="cp1">
			<path d="m4.82 6.03h-1.9v-1.28q0-0.56-0.06-0.69-0.06-0.14-0.27-0.14-0.24 0-0.3 0.16-0.06 0.17-0.06 0.73v3.42q0 0.54 0.06 0.7 0.06 0.17 0.29 0.17 0.21 0 0.27-0.17 0.07-0.16 0.07-0.77v-0.92h1.9v0.29q0 1.14-0.16 1.62-0.16 0.47-0.71 0.83-0.55 0.36-1.35 0.36-0.84 0-1.38-0.3-0.54-0.31-0.72-0.84-0.17-0.55-0.17-1.63v-2.15q0-0.8 0.05-1.19 0.05-0.4 0.32-0.77 0.27-0.37 0.75-0.58 0.47-0.21 1.09-0.21 0.84 0 1.39 0.33 0.55 0.32 0.72 0.82 0.17 0.48 0.17 1.51zm5.31 1.1q0 1.11-0.06 1.58-0.05 0.46-0.32 0.84-0.27 0.38-0.74 0.59-0.46 0.2-1.08 0.2-0.59 0-1.06-0.19-0.47-0.2-0.75-0.58-0.29-0.39-0.34-0.84-0.05-0.46-0.05-1.6v-1.25q0-1.11 0.05-1.57 0.05-0.47 0.32-0.85 0.28-0.38 0.74-0.59 0.47-0.2 1.09-0.2 0.58 0 1.05 0.19 0.47 0.2 0.75 0.58 0.29 0.39 0.34 0.84 0.06 0.46 0.06 1.6zm-1.91-2.42q0-0.52-0.05-0.66-0.06-0.14-0.23-0.14-0.15 0-0.23 0.11-0.08 0.12-0.08 0.69v3.43q0 0.65 0.05 0.8 0.05 0.15 0.24 0.15 0.2 0 0.25-0.18 0.05-0.17 0.05-0.82zm7.15-1.89v7.36h-1.67l-0.99-3.35v3.35h-1.59v-7.36h1.59l1.07 3.31v-3.31zm4.87 0v1.47h-1.13v5.89h-1.9v-5.89h-1.12v-1.47zm3.62 0l1.09 7.36h-1.95l-0.09-1.32h-0.68l-0.12 1.32h-1.97l0.97-7.36zm-1.01 4.73q-0.14-1.25-0.29-3.09-0.29 2.11-0.36 3.09zm7.14-1.52h-1.9v-1.28q0-0.56-0.06-0.7-0.06-0.14-0.27-0.14-0.23 0-0.3 0.17-0.06 0.17-0.06 0.72v3.42q0 0.54 0.06 0.7 0.07 0.17 0.29 0.17 0.21 0 0.27-0.17 0.07-0.16 0.07-0.76v-0.93h1.9v0.29q0 1.14-0.16 1.62-0.16 0.48-0.71 0.84-0.55 0.35-1.35 0.35-0.84 0-1.38-0.3-0.54-0.3-0.72-0.84-0.17-0.54-0.17-1.62v-2.16q0-0.79 0.05-1.19 0.05-0.4 0.32-0.77 0.27-0.36 0.75-0.57 0.48-0.22 1.09-0.22 0.85 0 1.39 0.33 0.55 0.33 0.72 0.82 0.17 0.49 0.17 1.52zm4.79-3.21v1.47h-1.13v5.89h-1.9v-5.89h-1.12v-1.47zm4.74 2.23h-1.77v-0.55q0-0.38-0.07-0.49-0.06-0.1-0.22-0.1-0.17 0-0.26 0.14-0.09 0.14-0.09 0.43 0 0.37 0.1 0.55 0.09 0.19 0.54 0.45 1.27 0.76 1.6 1.25 0.33 0.48 0.33 1.57 0 0.78-0.19 1.16-0.18 0.37-0.7 0.62-0.53 0.25-1.22 0.25-0.77 0-1.31-0.29-0.54-0.29-0.7-0.74-0.17-0.45-0.17-1.28v-0.48h1.76v0.9q0 0.41 0.08 0.53 0.07 0.12 0.26 0.12 0.19 0 0.28-0.15 0.1-0.15 0.1-0.45 0-0.65-0.18-0.85-0.18-0.2-0.89-0.67-0.71-0.47-0.94-0.68-0.23-0.22-0.38-0.59-0.15-0.38-0.15-0.97 0-0.84 0.21-1.24 0.22-0.39 0.7-0.6 0.48-0.23 1.15-0.23 0.75 0 1.26 0.24 0.53 0.24 0.7 0.61 0.17 0.37 0.17 1.24z"/>
		</clipPath>
	</defs>
	<style>
		.s0 { fill: #af2043 } 
	</style>
	<path id="Layer" fill-rule="evenodd" class="s0" d="m4.8 6h-1.9v-1.2q0-0.6 0-0.7-0.1-0.2-0.3-0.2-0.2 0-0.3 0.2-0.1 0.2-0.1 0.7v3.4q0 0.6 0.1 0.7 0.1 0.2 0.3 0.2 0.2 0 0.3-0.2 0-0.1 0-0.7v-1h1.9v0.3q0 1.2-0.1 1.6-0.2 0.5-0.8 0.9-0.5 0.3-1.3 0.3-0.8 0-1.4-0.3-0.5-0.3-0.7-0.8-0.2-0.5-0.2-1.6v-2.2q0-0.8 0.1-1.2 0-0.4 0.3-0.7 0.3-0.4 0.7-0.6 0.5-0.2 1.1-0.2 0.9 0 1.4 0.3 0.6 0.3 0.7 0.8 0.2 0.5 0.2 1.5zm5.3 1.1q0 1.1 0 1.6-0.1 0.5-0.4 0.8-0.2 0.4-0.7 0.6-0.5 0.2-1.1 0.2-0.6 0-1-0.2-0.5-0.1-0.8-0.5-0.3-0.4-0.3-0.9-0.1-0.4-0.1-1.6v-1.2q0-1.1 0.1-1.6 0-0.5 0.3-0.8 0.3-0.4 0.7-0.6 0.5-0.2 1.1-0.2 0.6 0 1.1 0.2 0.4 0.2 0.7 0.5 0.3 0.4 0.4 0.9 0 0.4 0 1.6zm-1.9-2.4q0-0.6 0-0.7-0.1-0.1-0.3-0.1-0.1 0-0.2 0.1-0.1 0.1-0.1 0.7v3.4q0 0.6 0.1 0.8 0 0.1 0.2 0.1 0.2 0 0.3-0.1 0-0.2 0-0.9zm7.2-1.9v7.4h-1.7l-1-3.3v3.3h-1.6v-7.4h1.6l1.1 3.4v-3.4zm4.9 0v1.5h-1.2v5.9h-1.9v-5.9h-1.1v-1.5zm3.6 0l1.1 7.4h-1.9l-0.1-1.3h-0.7l-0.1 1.3h-2l1-7.4zm-1 4.8q-0.2-1.3-0.3-3.1-0.3 2.1-0.4 3.1zm7.2-1.5h-2v-1.3q0-0.6 0-0.7-0.1-0.2-0.3-0.2-0.2 0-0.3 0.2 0 0.2 0 0.7v3.5q0 0.5 0 0.7 0.1 0.1 0.3 0.1 0.2 0 0.3-0.1 0-0.2 0-0.8v-0.9h2v0.2q0 1.2-0.2 1.7-0.2 0.4-0.7 0.8-0.6 0.4-1.4 0.4-0.8 0-1.3-0.3-0.6-0.3-0.8-0.9-0.1-0.5-0.1-1.6v-2.2q0-0.8 0-1.1 0.1-0.4 0.3-0.8 0.3-0.4 0.8-0.6 0.5-0.2 1.1-0.2 0.8 0 1.4 0.3 0.5 0.3 0.7 0.8 0.2 0.5 0.2 1.6zm4.7-3.3v1.5h-1.1v5.9h-1.9v-5.9h-1.1v-1.5zm4.7 2.3h-1.7v-0.6q0-0.4-0.1-0.5-0.1-0.1-0.2-0.1-0.2 0-0.3 0.2-0.1 0.1-0.1 0.4 0 0.4 0.1 0.6 0.1 0.1 0.6 0.4 1.2 0.8 1.6 1.3 0.3 0.4 0.3 1.5 0 0.8-0.2 1.2-0.2 0.4-0.7 0.6-0.5 0.3-1.2 0.3-0.8 0-1.3-0.3-0.6-0.3-0.7-0.8-0.2-0.4-0.2-1.2v-0.5h1.8v0.9q0 0.4 0 0.5 0.1 0.1 0.3 0.1 0.2 0 0.3-0.1 0.1-0.2 0.1-0.5 0-0.6-0.2-0.8-0.2-0.2-0.9-0.7-0.7-0.5-0.9-0.7-0.3-0.2-0.4-0.6-0.2-0.4-0.2-0.9 0-0.9 0.3-1.3 0.2-0.4 0.6-0.6 0.5-0.2 1.2-0.2 0.7 0 1.3 0.2 0.5 0.3 0.7 0.6 0.1 0.4 0.1 1.3z"/>
	<g id="Clip-Path" clip-path="url(#cp1)">
		<g id="Layer">
			<path id="Layer" d="m39.9 10.2h-39.9v-7.7h39.9z"/>
		</g>
	</g>
</svg>