<svg version="1.2" xmlns="http://www.w3.org/2000/svg" viewBox="0 0 50 11" width="50" height="11">
	<title>h1-svg</title>
	<defs>
		<clipPath clipPathUnits="userSpaceOnUse" id="cp1">
			<path d="m50 8.83h-24.09v-6.61h24.09zm-24.09 0h-25.91v-6.61h25.91z"/>
		</clipPath>
	</defs>
	<style>
		.s0 { fill: #af2043 } 
		.s1 { fill: #191b1d } 
	</style>
	<path id="Layer" fill-rule="evenodd" class="s0" d="m0.3 2.4h1.3q1.2 0 1.6 0.1 0.4 0.1 0.6 0.4 0.2 0.2 0.3 0.5 0 0.3 0 1.2v2.2q0 0.8 0 1.1-0.1 0.3-0.3 0.4-0.2 0.2-0.5 0.3-0.3 0-0.9 0h-2.1zm1.7 1.1v4.1q0.3 0 0.4-0.2 0.1-0.1 0.1-0.7v-2.5q0-0.4 0-0.5-0.1-0.1-0.2-0.2-0.1 0-0.3 0zm3-1.1h2.7v1.3h-1.1v1.1h1.1v1.2h-1.1v1.4h1.3v1.2h-2.9zm7.1 1.9h-1.6v-0.5q0-0.3 0-0.4-0.1-0.1-0.2-0.1-0.2 0-0.2 0.2-0.1 0.1-0.1 0.3 0 0.3 0.1 0.5 0 0.1 0.4 0.4 1.1 0.6 1.4 1 0.3 0.4 0.3 1.3 0 0.7-0.2 1-0.1 0.3-0.6 0.5-0.4 0.2-1 0.2-0.7 0-1.2-0.2-0.4-0.2-0.6-0.6-0.1-0.4-0.1-1.1v-0.4h1.5v0.7q0 0.4 0.1 0.5 0 0.1 0.2 0.1 0.2 0 0.3-0.1 0-0.2 0-0.4 0-0.6-0.1-0.7-0.2-0.2-0.8-0.6-0.6-0.4-0.8-0.6-0.2-0.1-0.3-0.5-0.2-0.3-0.2-0.8 0-0.7 0.2-1 0.2-0.3 0.6-0.5 0.4-0.2 1-0.2 0.7 0 1.1 0.2 0.5 0.2 0.6 0.5 0.2 0.3 0.2 1zm4.2-1.8v1.2h-1v5h-1.6v-5h-1v-1.2zm0.6 0h1.6v6.2h-1.6zm6.2 0v6.2h-1.4l-0.9-2.8v2.8h-1.4v-6.2h1.4l0.9 2.8v-2.8zm5.9 0v1.2h-0.9v5h-1.7v-5h-1v-1.2zm3.2 0l0.9 6.2h-1.7l-0.1-1.1h-0.5l-0.1 1.1h-1.8l0.9-6.2zm-0.9 4q-0.1-1.1-0.2-2.6-0.3 1.7-0.3 2.6zm5.2-4v1.2h-1v5h-1.7v-5h-0.9v-1.2zm3.9 0v1.2h-1v5h-1.6v-5h-1v-1.2zm4.4 3.6q0 0.9-0.1 1.3 0 0.4-0.3 0.7-0.2 0.4-0.6 0.5-0.4 0.2-0.9 0.2-0.5 0-0.9-0.2-0.4-0.1-0.7-0.4-0.2-0.4-0.3-0.8 0-0.3 0-1.3v-1.1q0-0.9 0-1.3 0.1-0.4 0.3-0.7 0.2-0.3 0.6-0.5 0.4-0.2 1-0.2 0.5 0 0.9 0.2 0.4 0.2 0.6 0.5 0.3 0.3 0.3 0.7 0.1 0.4 0.1 1.3zm-1.7-2q0-0.4 0-0.5-0.1-0.2-0.2-0.2-0.2 0-0.2 0.1-0.1 0.1-0.1 0.6v2.9q0 0.5 0.1 0.7 0 0.1 0.2 0.1 0.1 0 0.2-0.2 0-0.1 0-0.6zm6.3 2q0 0.9 0 1.3-0.1 0.4-0.3 0.7-0.3 0.3-0.7 0.5-0.4 0.2-0.9 0.2-0.5 0-0.9-0.2-0.4-0.1-0.7-0.5-0.2-0.3-0.3-0.7 0-0.4 0-1.3v-1.1q0-0.9 0-1.3 0.1-0.4 0.3-0.7 0.3-0.3 0.7-0.5 0.4-0.2 0.9-0.2 0.5 0 0.9 0.2 0.4 0.2 0.7 0.5 0.2 0.3 0.3 0.7 0 0.4 0 1.3zm-1.6-2q0-0.4-0.1-0.6 0-0.1-0.2-0.1-0.1 0-0.2 0.1-0.1 0.1-0.1 0.6v2.9q0 0.5 0.1 0.7 0 0.1 0.2 0.1 0.2 0 0.2-0.2 0.1-0.1 0.1-0.7z"/>
	<g id="Clip-Path" clip-path="url(#cp1)">
		<g id="Layer">
			<path id="Layer" fill-rule="evenodd" class="s1" d="m0.9 2.4h1.2q1.2 0 1.6 0.1 0.4 0.1 0.6 0.4 0.3 0.2 0.3 0.5 0.1 0.3 0.1 1.2v2.2q0 0.8-0.1 1.1-0.1 0.3-0.3 0.4-0.2 0.2-0.5 0.3-0.3 0-0.9 0h-2zm1.6 1.1v4.1q0.4 0 0.4-0.2 0.1-0.1 0.1-0.7v-2.5q0-0.4 0-0.5 0-0.1-0.1-0.2-0.1 0-0.4 0zm3-1.1h2.8v1.3h-1.1v1.1h1v1.2h-1v1.4h1.2v1.2h-2.9zm7.1 1.9h-1.5v-0.5q0-0.3-0.1-0.4-0.1-0.1-0.2-0.1-0.1 0-0.2 0.2-0.1 0.1-0.1 0.3 0 0.3 0.1 0.5 0.1 0.1 0.5 0.4 1.1 0.6 1.3 1 0.3 0.4 0.3 1.3 0 0.7-0.1 1-0.2 0.3-0.6 0.5-0.5 0.2-1.1 0.2-0.7 0-1.1-0.2-0.5-0.2-0.6-0.6-0.2-0.4-0.2-1.1v-0.4h1.5v0.7q0 0.4 0.1 0.5 0.1 0.1 0.2 0.1 0.2 0 0.3-0.1 0.1-0.2 0.1-0.4 0-0.6-0.2-0.7-0.1-0.2-0.8-0.6-0.6-0.4-0.8-0.6-0.2-0.1-0.3-0.5-0.1-0.3-0.1-0.8 0-0.7 0.1-1 0.2-0.3 0.6-0.5 0.5-0.2 1.1-0.2 0.6 0 1 0.2 0.5 0.2 0.6 0.5 0.2 0.3 0.2 1zm4.2-1.8v1.2h-1v5h-1.6v-5h-1v-1.2zm0.6 0h1.7v6.2h-1.7zm6.2 0v6.2h-1.4l-0.9-2.8v2.8h-1.3v-6.2h1.3l1 2.8v-2.8zm5.9 0v1.2h-1v5h-1.7v-5h-0.9v-1.2zm3.1 0l0.9 6.2h-1.7v-1.1h-0.6l-0.1 1.1h-1.7l0.8-6.2zm-0.9 4q-0.1-1.1-0.2-2.6-0.3 1.7-0.3 2.6zm5.2-4v1.2h-1v5h-1.6v-5h-1v-1.2zm3.9 0v1.2h-1v5h-1.6v-5h-1v-1.2zm4.4 3.6q0 0.9 0 1.3-0.1 0.4-0.3 0.7-0.3 0.4-0.7 0.5-0.4 0.2-0.9 0.2-0.5 0-0.9-0.2-0.4-0.1-0.7-0.4-0.2-0.4-0.3-0.8 0-0.3 0-1.3v-1.1q0-0.9 0-1.3 0.1-0.4 0.3-0.7 0.3-0.3 0.7-0.5 0.4-0.2 0.9-0.2 0.5 0 0.9 0.2 0.4 0.2 0.7 0.5 0.2 0.3 0.3 0.7 0 0.4 0 1.3zm-1.6-2q0-0.4-0.1-0.5 0-0.2-0.2-0.2-0.1 0-0.2 0.1-0.1 0.1-0.1 0.6v2.9q0 0.5 0.1 0.7 0 0.1 0.2 0.1 0.2 0 0.2-0.2 0.1-0.1 0.1-0.6zm6.2 2q0 0.9 0 1.3-0.1 0.4-0.3 0.7-0.2 0.3-0.6 0.5-0.4 0.2-1 0.2-0.5 0-0.9-0.2-0.4-0.1-0.6-0.5-0.3-0.3-0.3-0.7-0.1-0.4-0.1-1.3v-1.1q0-0.9 0.1-1.3 0-0.4 0.2-0.7 0.3-0.3 0.7-0.5 0.4-0.2 0.9-0.2 0.5 0 0.9 0.2 0.4 0.2 0.7 0.5 0.2 0.3 0.3 0.7 0 0.4 0 1.3zm-1.6-2q0-0.4-0.1-0.6 0-0.1-0.2-0.1-0.1 0-0.2 0.1 0 0.1 0 0.6v2.9q0 0.5 0 0.7 0 0.1 0.2 0.1 0.2 0 0.2-0.2 0.1-0.1 0.1-0.7z"/>
		</g>
	</g>
</svg>