<svg version="1.2" xmlns="http://www.w3.org/2000/svg" viewBox="0 0 20 8" width="20" height="8">
	<title>h1-svg</title>
	<defs>
		<clipPath clipPathUnits="userSpaceOnUse" id="cp1">
			<path d="m2.42 1.69l0.67 4.55h-1.2l-0.06-0.82h-0.42l-0.07 0.82h-1.21l0.59-4.55zm-0.62 2.92q-0.09-0.77-0.18-1.91-0.18 1.31-0.22 1.91zm1.67-2.92h0.83q0.83 0 1.12 0.06 0.3 0.07 0.48 0.33 0.19 0.27 0.19 0.85 0 0.53-0.13 0.71-0.13 0.19-0.52 0.22 0.35 0.09 0.47 0.24 0.12 0.14 0.15 0.27 0.03 0.12 0.03 0.67v1.2h-1.09v-1.51q0-0.37-0.06-0.46-0.06-0.08-0.3-0.08v2.05h-1.17zm1.17 0.78v1.01q0.2 0 0.28-0.05 0.08-0.06 0.08-0.36v-0.25q0-0.22-0.08-0.28-0.08-0.07-0.28-0.07zm4.44-0.78v0.91h-0.69v3.64h-1.18v-3.64h-0.69v-0.91zm0.44 0h1.17v4.55h-1.17zm4.3 1.38h-1.09v-0.34q0-0.23-0.04-0.3-0.04-0.06-0.14-0.06-0.11 0-0.16 0.09-0.06 0.08-0.06 0.26 0 0.23 0.07 0.34 0.05 0.12 0.33 0.28 0.78 0.47 0.99 0.77 0.2 0.3 0.2 0.97 0 0.49-0.11 0.72-0.12 0.23-0.44 0.39-0.32 0.15-0.75 0.15-0.47 0-0.81-0.18-0.33-0.18-0.44-0.46-0.1-0.27-0.1-0.79v-0.29h1.09v0.55q0 0.26 0.05 0.33 0.04 0.07 0.16 0.07 0.12 0 0.17-0.09 0.06-0.09 0.06-0.28 0-0.4-0.11-0.52-0.11-0.13-0.54-0.42-0.44-0.29-0.59-0.42-0.14-0.13-0.23-0.37-0.09-0.23-0.09-0.59 0-0.53 0.13-0.77 0.13-0.24 0.43-0.37 0.29-0.14 0.71-0.14 0.46 0 0.78 0.15 0.32 0.15 0.43 0.37 0.1 0.23 0.1 0.77zm3.01-1.38v0.91h-0.7v3.65h-1.17v-3.65h-0.7v-0.91zm2.93 1.38h-1.09v-0.34q0-0.23-0.04-0.3-0.05-0.06-0.14-0.06-0.11 0-0.16 0.09-0.06 0.08-0.06 0.26 0 0.23 0.06 0.34 0.06 0.12 0.34 0.28 0.78 0.47 0.98 0.77 0.21 0.3 0.21 0.97 0 0.49-0.12 0.72-0.11 0.23-0.43 0.39-0.33 0.15-0.76 0.15-0.47 0-0.8-0.18-0.33-0.18-0.44-0.46-0.1-0.27-0.1-0.79v-0.29h1.09v0.55q0 0.26 0.04 0.33 0.05 0.07 0.17 0.07 0.12 0 0.17-0.09 0.06-0.09 0.06-0.28 0-0.4-0.11-0.52-0.11-0.13-0.55-0.42-0.44-0.29-0.58-0.42-0.14-0.13-0.24-0.37-0.09-0.23-0.09-0.59 0-0.53 0.13-0.77 0.14-0.24 0.43-0.37 0.3-0.14 0.72-0.14 0.46 0 0.78 0.15 0.32 0.15 0.42 0.37 0.11 0.23 0.11 0.77z"/>
		</clipPath>
	</defs>
	<style>
		.s0 { fill: #af2043 } 
	</style>
	<path id="Layer" fill-rule="evenodd" class="s0" d="m2.4 1.7l0.7 4.5h-1.2l-0.1-0.8h-0.4l-0.1 0.8h-1.2l0.6-4.5zm-0.6 2.9q-0.1-0.8-0.2-1.9-0.2 1.3-0.2 1.9zm1.7-2.9h0.8q0.8 0 1.1 0.1 0.3 0 0.5 0.3 0.2 0.2 0.2 0.8 0 0.6-0.1 0.7-0.2 0.2-0.6 0.3 0.4 0.1 0.5 0.2 0.1 0.1 0.2 0.3 0 0.1 0 0.6v1.2h-1.1v-1.5q0-0.3-0.1-0.4 0-0.1-0.3-0.1v2h-1.1zm1.1 0.8v1q0.2 0 0.3 0 0.1-0.1 0.1-0.4v-0.2q0-0.2-0.1-0.3-0.1-0.1-0.3-0.1zm4.5-0.8v1h-0.7v3.6h-1.2v-3.6h-0.7v-1zm0.5 0h1.1v4.6h-1.1zm4.3 1.4h-1.1v-0.4q0-0.2-0.1-0.3 0 0-0.1 0-0.1 0-0.2 0.1 0 0 0 0.2 0 0.2 0 0.4 0.1 0.1 0.4 0.2 0.8 0.5 1 0.8 0.2 0.3 0.2 1 0 0.5-0.2 0.7-0.1 0.2-0.4 0.4-0.3 0.1-0.7 0.1-0.5 0-0.8-0.1-0.4-0.2-0.5-0.5-0.1-0.3-0.1-0.8v-0.3h1.1v0.6q0 0.2 0 0.3 0.1 0.1 0.2 0.1 0.1 0 0.2-0.1 0-0.1 0-0.3 0-0.4-0.1-0.5-0.1-0.1-0.5-0.4-0.5-0.3-0.6-0.5-0.1-0.1-0.2-0.3-0.1-0.3-0.1-0.6 0-0.5 0.1-0.8 0.1-0.2 0.4-0.4 0.3-0.1 0.8-0.1 0.4 0 0.7 0.1 0.4 0.2 0.5 0.4 0.1 0.2 0.1 0.8zm3-1.4v0.9h-0.7v3.7h-1.2v-3.7h-0.7v-0.9zm2.9 1.4h-1.1v-0.3q0-0.3 0-0.3 0-0.1-0.1-0.1-0.1 0-0.2 0.1-0.1 0.1-0.1 0.2 0 0.3 0.1 0.4 0.1 0.1 0.3 0.3 0.8 0.4 1 0.7 0.2 0.3 0.2 1 0 0.5-0.1 0.7-0.1 0.3-0.4 0.4-0.3 0.2-0.8 0.2-0.4 0-0.8-0.2-0.3-0.2-0.4-0.5-0.1-0.3-0.1-0.8v-0.3h1.1v0.6q0 0.2 0 0.3 0.1 0.1 0.2 0.1 0.1 0 0.2-0.1 0-0.1 0-0.3 0-0.4-0.1-0.5-0.1-0.1-0.5-0.4-0.5-0.3-0.6-0.4-0.2-0.2-0.3-0.4-0.1-0.2-0.1-0.6 0-0.5 0.2-0.8 0.1-0.2 0.4-0.3 0.3-0.2 0.7-0.2 0.5 0 0.8 0.2 0.3 0.1 0.4 0.3 0.1 0.3 0.1 0.8z"/>
	<g id="Clip-Path" clip-path="url(#cp1)">
		<g id="Layer">
			<path id="Layer" d="m0.2-2.2h53v14.7h-53z"/>
		</g>
	</g>
</svg>