<svg version="1.2" xmlns="http://www.w3.org/2000/svg" viewBox="0 0 40 37" width="40" height="37">
	<title>h2_faq-svg</title>
	<defs>
		<clipPath clipPathUnits="userSpaceOnUse" id="cp1">
			<path d="m1.09 8.04h9.29v4.19h-3.8v3.97h3.38v3.99h-3.38v8.8h-5.49zm20.35 0l3.14 20.96h-5.62l-0.27-3.77h-1.97l-0.32 3.77h-5.68l2.79-20.96zm-2.91 13.48q-0.41-3.56-0.83-8.79-0.83 6-1.04 8.79zm20.32 7.48v2.53h-4.14q-1.5 0-2.11-0.23-0.61-0.22-0.84-0.67-0.2-0.45-0.2-1.63-1.87-0.05-3.21-0.97-1.34-0.92-1.77-2.33-0.43-1.43-0.43-4.25v-6.48q0-2.14 0.25-3.25 0.26-1.13 1.05-2.11 0.8-1 2.05-1.5 1.25-0.51 2.77-0.51 1.84 0 3.27 0.62 1.45 0.63 2.15 1.58 0.72 0.96 0.92 2 0.22 1.02 0.23 3.05v6.81q-0.01 2.79-0.28 3.79-0.27 1-1.05 1.59-0.77 0.59-2.06 0.9 0.04 0.69 0.29 0.88 0.26 0.18 1.21 0.18zm-5.5-15.57q0-1.47-0.17-1.87-0.15-0.41-0.66-0.41-0.43 0-0.66 0.34-0.23 0.32-0.23 1.94v9.78q0 1.83 0.15 2.25 0.15 0.43 0.7 0.43 0.56 0 0.72-0.49 0.15-0.49 0.15-2.34z"/>
		</clipPath>
	</defs>
	<style>
		.s0 { fill: #af2043 } 
	</style>
	<g id="Clip-Path" clip-path="url(#cp1)">
		<g id="Layer">
			<path id="Layer" fill-rule="evenodd" class="s0" d="m1.1 8h9.3v4.2h-3.8v4h3.4v4h-3.4v8.8h-5.5zm20.3 0l3.2 20.9h-5.6l-0.3-3.7h-2l-0.3 3.7h-5.7l2.8-20.9zm-2.9 13.5q-0.4-3.6-0.8-8.8-0.9 6-1.1 8.8zm20.3 7.4v2.6h-4.1q-1.5 0-2.1-0.2-0.6-0.3-0.8-0.7-0.2-0.5-0.2-1.7-1.9 0-3.2-0.9-1.4-0.9-1.8-2.4-0.4-1.4-0.4-4.2v-6.5q0-2.1 0.2-3.2 0.3-1.2 1.1-2.1 0.7-1 2-1.5 1.2-0.5 2.8-0.5 1.8 0 3.2 0.6 1.5 0.6 2.2 1.6 0.7 0.9 0.9 1.9 0.2 1.1 0.2 3.1v6.8q0 2.8-0.2 3.8-0.3 1-1.1 1.6-0.8 0.6-2.1 0.9 0.1 0.7 0.3 0.9 0.3 0.1 1.2 0.1zm-5.4-15.5q0-1.5-0.2-1.9-0.2-0.4-0.7-0.4-0.4 0-0.6 0.3-0.3 0.4-0.3 2v9.8q0 1.8 0.2 2.2 0.1 0.4 0.7 0.4 0.5 0 0.7-0.5 0.2-0.4 0.2-2.3z"/>
			<path id="Layer" d="m38.9 31.5h-37.8v-24h37.8z"/>
		</g>
	</g>
</svg>