<svg version="1.2" xmlns="http://www.w3.org/2000/svg" viewBox="0 0 136 45" width="136" height="45">
	<title>opened-svg</title>
	<defs>
		<clipPath clipPathUnits="userSpaceOnUse" id="cp1">
			<path d="m20.38 4.05v8.28l-6.05 29.67h-9.42l6.72-31.13h-9.35v-6.82zm13.76 0h7.38q7.15 0 9.66 0.66 2.53 0.66 3.84 2.16 1.31 1.5 1.64 3.35 0.33 1.83 0.33 7.22v13.29q0 5.11-0.49 6.84-0.47 1.71-1.67 2.7-1.19 0.96-2.95 1.35-1.76 0.38-5.3 0.38h-12.44zm9.86 6.49v24.96q2.14 0 2.63-0.84 0.49-0.87 0.49-4.66v-14.75q0-2.57-0.16-3.3-0.17-0.73-0.75-1.06-0.59-0.35-2.21-0.35zm35.15-6.49l5.65 37.95h-10.11l-0.49-6.83h-3.54l-0.58 6.83h-10.22l5.01-37.95zm-5.22 24.4q-0.75-6.45-1.5-15.92-1.5 10.88-1.88 15.92zm32.12-24.4l-7.19 24.21v13.74h-9.14v-13.74l-6.94-24.21h9.07q2.13 11.09 2.39 14.93 0.82-6.07 2.74-14.93zm24.06 11.48h-9.16v-2.81q-0.01-1.97-0.36-2.51-0.35-0.54-1.17-0.54-0.89 0.01-1.36 0.73-0.44 0.73-0.44 2.2 0 1.9 0.51 2.86 0.49 0.96 2.79 2.32 6.59 3.92 8.3 6.43 1.71 2.5 1.71 8.08 0 4.06-0.96 5.98-0.94 1.92-3.66 3.23-2.72 1.29-6.33 1.29-3.96 0-6.77-1.5-2.79-1.5-3.66-3.82-0.86-2.32-0.86-6.58v-2.49h9.16v4.62q0 2.13 0.38 2.74 0.39 0.61 1.38 0.61 0.98 0 1.45-0.77 0.49-0.78 0.49-2.3 0-3.35-0.91-4.38-0.94-1.03-4.62-3.45-3.68-2.44-4.87-3.54-1.2-1.1-1.99-3.04-0.78-1.95-0.78-4.97 0-4.36 1.1-6.38 1.13-2.01 3.61-3.14 2.49-1.15 6-1.15 3.85 0 6.54 1.25 2.72 1.24 3.59 3.14 0.89 1.87 0.89 6.39z"/>
		</clipPath>
	</defs>
	<style>
		.s0 { fill: #bd3455 } 
		.s1 { fill: #ffffff } 
	</style>
	<path id="Layer" fill-rule="evenodd" class="s0" d="m-40.7 34.1q0 2.9-0.2 4.1-0.1 1.2-0.8 2.2-0.7 0.9-1.9 1.5-1.2 0.5-2.8 0.5-1.6 0-2.8-0.5-1.2-0.5-1.9-1.5-0.8-1-0.9-2.2-0.2-1.1-0.2-4.1v-3.2q0-2.9 0.2-4.1 0.1-1.1 0.8-2.1 0.7-1 1.9-1.5 1.2-0.6 2.9-0.6 1.5 0 2.7 0.5 1.2 0.5 1.9 1.5 0.8 1 0.9 2.2 0.2 1.2 0.2 4.1zm-5-6.2q0-1.4-0.1-1.7-0.2-0.4-0.6-0.4-0.4 0-0.6 0.3-0.2 0.3-0.2 1.8v8.8q0 1.7 0.1 2.1 0.1 0.3 0.6 0.3 0.5 0 0.7-0.4 0.1-0.4 0.1-2.1zm6.8-4.9h5q2 0 3.1 0.3 1.1 0.3 1.6 0.9 0.6 0.6 0.7 1.5 0.2 0.8 0.2 2.6v1.7q0 1.8-0.3 2.6-0.4 0.8-1.4 1.3-1 0.4-2.6 0.4h-1.4v7.7h-4.9zm4.9 3.2v4.8q0.3 0.1 0.4 0.1 0.7 0 0.9-0.4 0.3-0.3 0.3-1.4v-1.5q0-1-0.3-1.3-0.3-0.3-1.3-0.3zm7.2-3.2h8.2v3.8h-3.3v3.6h3.1v3.6h-3.1v4.1h3.6v3.8h-8.5zm21 0v19h-4.4l-2.5-8.6v8.6h-4.2v-19h4.2l2.7 8.6v-8.6zm26.5-18.9v8.2l-6.1 29.7h-9.4l6.7-31.1h-9.3v-6.8zm13.7 0h7.4q7.2 0 9.7 0.6 2.5 0.7 3.8 2.2 1.3 1.5 1.7 3.3 0.3 1.9 0.3 7.3v13.2q0 5.2-0.5 6.9-0.5 1.7-1.7 2.7-1.2 0.9-2.9 1.3-1.8 0.4-5.3 0.4h-12.5zm9.9 6.5v25q2.1 0 2.6-0.9 0.5-0.8 0.5-4.6v-14.8q0-2.6-0.1-3.3-0.2-0.7-0.8-1-0.6-0.4-2.2-0.4zm35.2-6.5l5.6 38h-10.1l-0.5-6.9h-3.5l-0.6 6.9h-10.2l5-38zm-5.2 24.4q-0.8-6.4-1.5-15.9-1.5 10.9-1.9 15.9zm32.1-24.4l-7.2 24.2v13.8h-9.1v-13.8l-7-24.2h9.1q2.1 11.1 2.4 14.9 0.8-6 2.7-14.9zm24.1 11.5h-9.2v-2.8q0-2-0.3-2.5-0.4-0.6-1.2-0.6-0.9 0-1.4 0.8-0.4 0.7-0.4 2.2 0 1.9 0.5 2.8 0.5 1 2.8 2.4 6.6 3.9 8.3 6.4 1.7 2.5 1.7 8.1 0 4-1 5.9-0.9 2-3.6 3.3-2.7 1.3-6.3 1.3-4 0-6.8-1.5-2.8-1.5-3.7-3.9-0.8-2.3-0.8-6.5v-2.5h9.1v4.6q0 2.1 0.4 2.7 0.4 0.6 1.4 0.6 1 0 1.4-0.7 0.5-0.8 0.5-2.3 0-3.4-0.9-4.4-0.9-1-4.6-3.5-3.7-2.4-4.9-3.5-1.2-1.1-2-3-0.7-2-0.7-5 0-4.4 1.1-6.4 1.1-2 3.6-3.1 2.5-1.2 6-1.2 3.8 0 6.5 1.3 2.7 1.2 3.6 3.1 0.9 1.9 0.9 6.4zm20 7.5l2.8 19h-5.1l-0.2-3.4h-1.8l-0.3 3.4h-5.1l2.5-19zm-2.6 12.2q-0.4-3.2-0.7-8-0.8 5.5-1 8zm29.1-12.2l-2.2 19h-6.1q-0.9-4.4-1.5-10-0.3 2.4-1.4 10h-6.1l-2.2-19h4.8l0.5 6.6 0.5 6.4q0.3-5 1.3-13h5.2q0.1 0.8 0.5 6.2l0.6 7.3q0.4-6.9 1.3-13.5zm1 0h8.2v3.8h-3.3v3.6h3.1v3.6h-3.1v4.2h3.7v3.8h-8.6zm10 0h8.2v3.8h-3.3v3.6h3.1v3.6h-3.1v4.1h3.6v3.8h-8.5zm21.7 0l-2.8 8.6 3.1 10.4h-5.1l-2-8.1v8.1h-4.9v-19h4.9v7.4l2.2-7.4z"/>
	<g id="Clip-Path" clip-path="url(#cp1)">
		<g id="Layer">
			<path id="Layer" d="m132 44h-130v-42h130z"/>
		</g>
	</g>
	<path id="Layer" fill-rule="evenodd" class="s1" d="m-50.8 81h-1l0.8-10.8h1.3l1.4 4 1.9 5.5q1.1-3.1 2-5.5l1.5-4h1.4l0.9 10.8h-1l-0.4-4.3-0.4-5.2q-1 2.7-1.9 5.2l-1.5 4h-1.2l-1.4-4-1.8-5.1q-0.1 2.4-0.3 5.1zm19.6-4q0 1.8-1 3-1 1.2-2.8 1.2-1.7 0-2.7-1.2-1-1.2-1-3 0-1.8 1-3 1.1-1.2 2.7-1.2 1.8 0 2.8 1.2 1 1.2 1 3zm-6.5 0q0 1.3 0.7 2.3 0.8 0.9 2 0.9 1.3 0 2.1-0.9 0.7-0.9 0.7-2.3 0-1.4-0.7-2.3-0.7-1-2.1-1-1.2 0-2 1-0.7 1-0.7 2.3zm14.6 4h-1v-5.3q0-1-0.5-1.5-0.5-0.5-1.2-0.5-1 0-1.8 0.8-0.7 0.8-0.7 2v4.5h-0.9v-8.1h0.9v1.4q0.8-1.5 2.6-1.5 1.2 0 1.9 0.7 0.7 0.7 0.7 1.9zm8.8 0h-1v-1.2q-0.9 1.3-2.5 1.3-1.7 0-2.6-1.2-0.9-1.2-0.9-2.9 0-1.9 1-3.1 1-1.2 2.5-1.2 1.6 0 2.5 1.4v-4.4h1zm-6-4q0 1.4 0.7 2.3 0.7 0.9 1.7 0.9 1.1 0 1.8-0.8 0.8-0.8 0.8-2.5 0-0.9-0.3-1.6-0.2-0.7-0.6-1-0.4-0.4-0.8-0.5-0.4-0.2-0.8-0.2-1 0-1.7 0.9-0.8 0.9-0.8 2.5zm12.9 3q-0.7 1-2.4 1-1.1 0-1.8-0.6-0.7-0.7-0.7-1.7 0-1.2 0.9-1.8 0.9-0.7 2.4-0.7h1.6v-0.4q0-1.1-0.5-1.6-0.5-0.6-1.6-0.6-1.2 0-2.2 0.7v-1q0.9-0.6 2.3-0.6 2.9 0 2.9 3.1v5.2h-0.9zm-2.2 0.1q1 0 1.6-0.5 0.6-0.6 0.6-1.4v-1.2h-1.6q-1.2 0-1.7 0.5-0.6 0.4-0.6 1.1 0 0.6 0.5 1.1 0.4 0.4 1.2 0.4zm8.7 0.6q-0.6 1.6-1.4 2.3-0.8 0.6-1.9 0.6-0.3 0-0.6-0.1v-1q0.3 0.1 0.5 0.1 1.7 0 2.4-1.9l-3.3-7.9h1.1l1.1 2.7 1.6 3.9q0.1-0.4 1.4-3.9l1-2.7h1.1zm11.7-3.7h-3.6v-0.9h3.6zm12.2 1.1q0 1.4-1 2.2-0.9 0.7-2.4 0.7-1.6 0-2.8-0.7v-1.1q0.5 0.4 1.2 0.6 0.8 0.3 1.6 0.3 1.1 0 1.7-0.5 0.7-0.5 0.7-1.5 0-0.7-0.5-1.1-0.5-0.4-1.4-0.8-0.1-0.1-0.6-0.3-0.4-0.2-0.6-0.3-0.1 0-0.5-0.2-0.4-0.2-0.6-0.4-0.1-0.1-0.4-0.3-0.2-0.3-0.3-0.5-0.2-0.3-0.2-0.6-0.1-0.3-0.1-0.7 0-1.3 0.9-2.1 1-0.8 2.4-0.8 1.4 0 2.3 0.5v1.1q-0.4-0.2-1.1-0.4-0.6-0.2-1.2-0.2-1 0-1.7 0.5-0.6 0.5-0.6 1.3 0 0.5 0.1 0.8 0.2 0.4 0.6 0.6 0.4 0.3 0.7 0.5 0.3 0.1 0.9 0.4 0.6 0.2 0.9 0.4 0.3 0.1 0.7 0.4 0.4 0.3 0.7 0.5 0.2 0.3 0.4 0.8 0.2 0.4 0.2 0.9zm8.3 2.8h-1v-1.4q-0.6 1.5-2.6 1.5-1.2 0-1.9-0.7-0.7-0.7-0.7-1.9v-5.6h1v5.4q0 0.9 0.5 1.4 0.5 0.5 1.3 0.5 1.1 0 1.7-0.8 0.7-0.8 0.7-2v-4.5h1zm8.5 0h-0.9v-5.4q0-0.9-0.5-1.4-0.5-0.5-1.3-0.5-1 0-1.7 0.8-0.7 0.7-0.7 2v4.5h-1v-8.1h1v1.4q0.7-1.5 2.6-1.5 1.1 0 1.8 0.7 0.7 0.7 0.7 1.8zm8.8 0h-0.9v-1.1q-0.9 1.3-2.6 1.3-1.6 0-2.5-1.2-0.9-1.2-0.9-2.9 0-1.9 1-3.1 0.9-1.2 2.5-1.2 1.6 0 2.5 1.3v-4.4h0.9zm-5.9-3.9q0 1.4 0.7 2.2 0.7 0.9 1.7 0.9 1 0 1.8-0.7 0.8-0.8 0.8-2.6 0-0.9-0.3-1.5-0.2-0.7-0.6-1-0.4-0.4-0.8-0.5-0.4-0.2-0.8-0.2-1.1 0-1.8 0.9-0.7 0.9-0.7 2.5zm12.8 3q-0.7 1-2.3 1-1.1 0-1.9-0.7-0.7-0.6-0.7-1.7 0-1.1 0.9-1.8 0.9-0.6 2.4-0.6h1.6v-0.4q0-1.1-0.4-1.6-0.5-0.6-1.6-0.6-1.3 0-2.3 0.7v-1.1q1-0.5 2.3-0.5 3 0 3 3.1v5.1h-1zm-2.1 0.2q1 0 1.5-0.6 0.6-0.5 0.6-1.3v-1.2h-1.6q-1.1 0-1.7 0.5-0.5 0.4-0.5 1 0 0.7 0.4 1.1 0.5 0.5 1.3 0.5zm8.7 0.6q-0.6 1.6-1.5 2.2-0.8 0.7-1.8 0.7-0.4 0-0.7-0.1v-1q0.3 0.1 0.6 0.1 1.7 0 2.4-2l-3.3-7.8h1.1l1.1 2.7 1.6 3.9q0.1-0.4 1.3-3.9l1-2.7h1.1zm14.7 0.2h-1v-9.4l-2.3 1.4v-1.1l2.3-1.4h1zm8.4 0h-6.5v-0.9q5.1-3.9 5.1-6.5 0-1.1-0.6-1.7-0.6-0.5-1.7-0.5-1.2 0-2.4 0.9v-1q1.1-0.9 2.5-0.9 1.3 0 2.3 0.9 0.9 0.8 0.9 2.2 0 2.8-4.7 6.6h5.1zm2.9 3.2h-1v-11.3h1v1.2q0.9-1.3 2.5-1.3 1.7 0 2.6 1.2 0.9 1.2 0.9 2.9 0 1.9-1 3.1-1 1.1-2.5 1.1-1.6 0-2.5-1.3zm0-7.2q0 0.9 0.3 1.6 0.2 0.6 0.6 1 0.4 0.3 0.8 0.5 0.4 0.1 0.8 0.1 1.1 0 1.8-0.9 0.7-0.8 0.7-2.5 0-1.3-0.7-2.2-0.7-0.9-1.7-0.9-1.1 0-1.8 0.8-0.8 0.7-0.8 2.5zm18.5 4h-1v-5.4q0-1.9-1.7-1.9-0.8 0-1.5 0.8-0.6 0.7-0.6 2v4.5h-1v-5.4q0-1.9-1.7-1.9-0.8 0-1.5 0.8-0.6 0.7-0.6 2v4.5h-1v-8.1h1v1.3q0.7-1.4 2.3-1.4 1.9 0 2.4 1.6 0.7-1.6 2.4-1.6 1.2 0 1.9 0.7 0.6 0.7 0.6 1.8zm9.5-3.8h-3.6v-0.9h3.6zm8.5 3.9h-1v-9.4l-2.3 1.4v-1.1l2.3-1.4h1zm9.3-5.3q0 2.5-1 4-1 1.4-2.7 1.4-1.6 0-2.6-1.4-1-1.5-1-4 0-2.4 1-3.8 1-1.5 2.6-1.5 1.6 0 2.6 1.5 1.1 1.4 1.1 3.8zm-6.3 0q0 2.1 0.8 3.3 0.7 1.2 1.8 1.2 1.2 0 1.9-1.2 0.8-1.1 0.8-3.3 0-2.1-0.8-3.2-0.8-1.1-1.9-1.1-1 0-1.8 1.1-0.8 1.2-0.8 3.2zm9.2 8.5h-1v-11.3h1v1.2q0.8-1.3 2.5-1.3 1.6 0 2.5 1.2 0.9 1.1 0.9 2.9 0 1.8-0.9 3-1 1.2-2.5 1.2-1.6 0-2.5-1.3zm0-7.2q0 0.9 0.2 1.5 0.3 0.7 0.7 1 0.4 0.4 0.7 0.5 0.4 0.2 0.8 0.2 1.1 0 1.8-0.9 0.7-0.9 0.7-2.5 0-1.4-0.7-2.3-0.6-0.8-1.7-0.8-1 0-1.8 0.7-0.7 0.8-0.7 2.6zm18.5 4h-1v-5.4q0-1.9-1.7-1.9-0.9 0-1.5 0.8-0.6 0.7-0.6 2v4.5h-1v-5.4q0-1.9-1.7-1.9-0.9 0-1.5 0.8-0.6 0.7-0.6 2v4.5h-1v-8.1h1v1.3q0.6-1.5 2.2-1.5 2 0 2.4 1.6 0.8-1.6 2.4-1.6 1.3 0 1.9 0.8 0.7 0.7 0.7 1.8z"/>
</svg>