<svg width="347" height="80" viewBox="0 0 347 80" fill="none" xmlns="http://www.w3.org/2000/svg">
<path d="M0.362305 2.3125H20.2373C25.6123 2.3125 29.7373 2.73438 32.6123 3.57812C35.5186 4.42188 37.6904 5.64062 39.1279 7.23438C40.5967 8.82812 41.5811 10.7656 42.0811 13.0469C42.6123 15.2969 42.8779 18.7969 42.8779 23.5469V30.1562C42.8779 35 42.3779 38.5312 41.3779 40.75C40.3779 42.9688 38.5342 44.6719 35.8467 45.8594C33.1904 47.0469 29.7061 47.6406 25.3936 47.6406H20.0967V78.2031H0.362305L0.362305 2.3125ZM20.0967 15.2969V34.6094C20.6592 34.6406 21.1436 34.6562 21.5498 34.6562C23.3623 34.6562 24.6123 34.2188 25.2998 33.3438C26.0186 32.4375 26.3779 30.5781 26.3779 27.7656V21.5312C26.3779 18.9375 25.9717 17.25 25.1592 16.4688C24.3467 15.6875 22.6592 15.2969 20.0967 15.2969ZM68.2842 2.3125V78.2031H48.5498V2.3125H68.2842ZM76.2061 2.3125H109.112V17.5H95.9404V31.8906H108.269V46.3281H95.9404V63.0156H110.425V78.2031H76.2061V2.3125ZM116.144 2.3125L130.112 2.3125C139.425 2.3125 145.722 2.67188 149.003 3.39062C152.315 4.10937 155.003 5.95312 157.065 8.92187C159.159 11.8594 160.206 16.5625 160.206 23.0312C160.206 28.9375 159.472 32.9062 158.003 34.9375C156.534 36.9688 153.644 38.1875 149.331 38.5938C153.237 39.5625 155.862 40.8594 157.206 42.4844C158.55 44.1094 159.378 45.6094 159.69 46.9844C160.034 48.3281 160.206 52.0625 160.206 58.1875V78.2031H141.878V52.9844C141.878 48.9219 141.55 46.4062 140.894 45.4375C140.269 44.4688 138.597 43.9844 135.878 43.9844V78.2031H116.144V2.3125ZM135.878 15.2969V32.1719C138.097 32.1719 139.644 31.875 140.519 31.2812C141.425 30.6562 141.878 28.6719 141.878 25.3281V21.1562C141.878 18.75 141.44 17.1719 140.565 16.4219C139.722 15.6719 138.159 15.2969 135.878 15.2969ZM213.972 35.4062H194.237V22.1875C194.237 18.3438 194.019 15.9531 193.581 15.0156C193.175 14.0469 192.253 13.5625 190.815 13.5625C189.19 13.5625 188.159 14.1406 187.722 15.2969C187.284 16.4531 187.065 18.9531 187.065 22.7969V58.0469C187.065 61.7344 187.284 64.1406 187.722 65.2656C188.159 66.3906 189.144 66.9531 190.675 66.9531C192.144 66.9531 193.097 66.3906 193.534 65.2656C194.003 64.1406 194.237 61.5 194.237 57.3438V47.8281H213.972V50.7812C213.972 58.625 213.409 64.1875 212.284 67.4688C211.19 70.75 208.737 73.625 204.925 76.0938C201.144 78.5625 196.472 79.7969 190.909 79.7969C185.128 79.7969 180.362 78.75 176.612 76.6562C172.862 74.5625 170.378 71.6719 169.159 67.9844C167.94 64.2656 167.331 58.6875 167.331 51.25V29.0781C167.331 23.6094 167.519 19.5156 167.894 16.7969C168.269 14.0469 169.378 11.4062 171.222 8.875C173.097 6.34375 175.675 4.35938 178.956 2.92187C182.269 1.45312 186.065 0.71875 190.347 0.71875C196.159 0.71875 200.956 1.84375 204.737 4.09375C208.519 6.34375 211.003 9.15625 212.19 12.5312C213.378 15.875 213.972 21.0938 213.972 28.1875V35.4062ZM240.784 2.3125V78.2031H221.05V2.3125H240.784ZM292.769 2.3125V78.2031H275.472L265.206 43.7031V78.2031H248.706V2.3125H265.206L276.269 36.4844V2.3125H292.769ZM346.019 30.25H326.284V23.3594C326.284 19.0156 326.097 16.2969 325.722 15.2031C325.347 14.1094 324.456 13.5625 323.05 13.5625C321.831 13.5625 321.003 14.0312 320.565 14.9687C320.128 15.9062 319.909 18.3125 319.909 22.1875V58.6094C319.909 62.0156 320.128 64.2656 320.565 65.3594C321.003 66.4219 321.878 66.9531 323.19 66.9531C324.628 66.9531 325.597 66.3438 326.097 65.125C326.628 63.9062 326.894 61.5312 326.894 58V49H322.909V37.4687H346.019V78.2031H333.597L331.769 72.7656C330.425 75.1094 328.722 76.875 326.659 78.0625C324.628 79.2188 322.222 79.7969 319.44 79.7969C316.128 79.7969 313.019 79 310.112 77.4062C307.237 75.7812 305.05 73.7812 303.55 71.4062C302.05 69.0312 301.112 66.5469 300.737 63.9531C300.362 61.3281 300.175 57.4062 300.175 52.1875V29.6406C300.175 22.3906 300.565 17.125 301.347 13.8437C302.128 10.5625 304.362 7.5625 308.05 4.84375C311.769 2.09375 316.565 0.71875 322.44 0.71875C328.222 0.71875 333.019 1.90625 336.831 4.28125C340.644 6.65625 343.128 9.48437 344.284 12.7656C345.44 16.0156 346.019 20.75 346.019 26.9687V30.25Z" fill="#BD3455"/>
</svg>
