<svg width="143" height="43" viewBox="0 0 143 43" fill="none" xmlns="http://www.w3.org/2000/svg">
<path d="M22.9608 1.64468L23.9608 1.64537L23.9615 0.645373L22.9615 0.64468L22.9608 1.64468ZM22.9553 9.55483L22.9546 10.5548L23.9546 10.5555L23.9553 9.55553L22.9553 9.55483ZM16.8518 9.5506L16.8525 8.5506L15.8525 8.5499L15.8518 9.5499L16.8518 9.5506ZM16.8298 41.1668L16.8292 42.1668L17.8292 42.1675L17.8298 41.1675L16.8298 41.1668ZM6.55153 41.1597L5.55153 41.159L5.55083 42.159L6.55083 42.1597L6.55153 41.1597ZM6.57346 9.54347L7.57346 9.54416L7.57416 8.54416L6.57416 8.54347L6.57346 9.54347ZM0.494364 9.53925L-0.505636 9.53855L-0.506329 10.5386L0.49367 10.5392L0.494364 9.53925ZM0.499853 1.62909L0.500546 0.629095L-0.499453 0.628401L-0.500147 1.6284L0.499853 1.62909ZM21.9608 1.64399L21.9553 9.55414L23.9553 9.55553L23.9608 1.64537L21.9608 1.64399ZM22.956 8.55483L16.8525 8.5506L16.8511 10.5506L22.9546 10.5548L22.956 8.55483ZM15.8518 9.5499L15.8298 41.1661L17.8298 41.1675L17.8518 9.55129L15.8518 9.5499ZM16.8305 40.1668L6.55222 40.1597L6.55083 42.1597L16.8292 42.1668L16.8305 40.1668ZM7.55153 41.1604L7.57346 9.54416L5.57346 9.54277L5.55153 41.159L7.55153 41.1604ZM6.57416 8.54347L0.495058 8.53925L0.49367 10.5392L6.57277 10.5435L6.57416 8.54347ZM1.49436 9.53994L1.49985 1.62979L-0.500147 1.6284L-0.505636 9.53855L1.49436 9.53994ZM0.499159 2.62909L22.9601 2.64468L22.9615 0.64468L0.500546 0.629095L0.499159 2.62909ZM41.0516 1.65723L42.0408 1.51068L41.9145 0.65783L41.0523 0.657232L41.0516 1.65723ZM46.908 41.1877L46.9073 42.1877L48.0671 42.1885L47.8972 41.0411L46.908 41.1877ZM36.3855 41.1804L35.388 41.2517L35.4544 42.1797L36.3848 42.1804L36.3855 41.1804ZM35.8777 34.0755L36.8752 34.0042L36.8089 33.0762L35.8784 33.0755L35.8777 34.0755ZM32.1912 34.073L32.1919 33.073L31.2741 33.0723L31.1949 33.9867L32.1912 34.073ZM31.5759 41.177L31.5752 42.177L32.493 42.1777L32.5722 41.2633L31.5759 41.177ZM20.9314 41.1696L19.9401 41.0379L19.7898 42.1689L20.9307 42.1696L20.9314 41.1696ZM26.1834 1.64692L26.1841 0.646916L25.3076 0.646307L25.1922 1.51519L26.1834 1.64692ZM35.5896 27.0685L35.5889 28.0685L36.712 28.0693L36.583 26.9536L35.5896 27.0685ZM34.0386 10.4903L35.0356 10.412L33.0481 10.3529L34.0386 10.4903ZM32.074 27.066L31.0768 26.9911L30.9961 28.0653L32.0733 28.066L32.074 27.066ZM40.0624 1.80378L45.9188 41.3342L47.8972 41.0411L42.0408 1.51068L40.0624 1.80378ZM46.9087 40.1877L36.3862 40.1804L36.3848 42.1804L46.9073 42.1877L46.9087 40.1877ZM37.383 41.1091L36.8752 34.0042L34.8803 34.1468L35.388 41.2517L37.383 41.1091ZM35.8784 33.0755L32.1919 33.073L32.1905 35.073L35.877 35.0755L35.8784 33.0755ZM31.1949 33.9867L30.5797 41.0907L32.5722 41.2633L33.1875 34.1593L31.1949 33.9867ZM31.5766 40.177L20.9321 40.1696L20.9307 42.1696L31.5752 42.177L31.5766 40.177ZM21.9227 41.3014L27.1747 1.77864L25.1922 1.51519L19.9401 41.0379L21.9227 41.3014ZM26.1827 2.64691L41.0509 2.65723L41.0523 0.657232L26.1841 0.646916L26.1827 2.64691ZM36.583 26.9536C36.0672 22.4937 35.5513 16.9807 35.0356 10.412L33.0417 10.5685C33.5585 17.1516 34.0766 22.6908 34.5963 27.1834L36.583 26.9536ZM33.0481 10.3529C32.0008 17.9069 31.3422 23.4585 31.0768 26.9911L33.0712 27.141C33.3315 23.6752 33.9826 18.1764 35.0292 10.6276L33.0481 10.3529ZM32.0733 28.066L35.5889 28.0685L35.5903 26.0685L32.0747 26.066L32.0733 28.066ZM66.6131 1.67497L67.6131 1.67566L67.6138 0.675661L66.6138 0.674968L66.6131 1.67497ZM66.6076 9.58512L66.6069 10.5851L67.6069 10.5858L67.6076 9.58581L66.6076 9.58512ZM60.5041 9.58089L60.5048 8.58089L59.5048 8.58019L59.5041 9.58019L60.5041 9.58089ZM60.4822 41.1971L60.4815 42.1971L61.4815 42.1978L61.4822 41.1978L60.4822 41.1971ZM50.2039 41.19L49.2039 41.1893L49.2032 42.1893L50.2032 42.19L50.2039 41.19ZM50.2258 9.57375L51.2258 9.57445L51.2265 8.57445L50.2265 8.57375L50.2258 9.57375ZM44.1467 9.56954L43.1467 9.56884L43.146 10.5688L44.146 10.5695L44.1467 9.56954ZM44.1522 1.65938L44.1529 0.659383L43.1529 0.658689L43.1522 1.65869L44.1522 1.65938ZM65.6131 1.67427L65.6076 9.58443L67.6076 9.58581L67.6131 1.67566L65.6131 1.67427ZM66.6083 8.58512L60.5048 8.58089L60.5034 10.5809L66.6069 10.5851L66.6083 8.58512ZM59.5041 9.58019L59.4822 41.1964L61.4822 41.1978L61.5041 9.58158L59.5041 9.58019ZM60.4829 40.1971L50.2046 40.19L50.2032 42.19L60.4815 42.1971L60.4829 40.1971ZM51.2039 41.1906L51.2258 9.57445L49.2258 9.57306L49.2039 41.1893L51.2039 41.1906ZM50.2265 8.57375L44.1474 8.56954L44.146 10.5695L50.2251 10.5738L50.2265 8.57375ZM45.1467 9.57023L45.1522 1.66008L43.1522 1.65869L43.1467 9.56884L45.1467 9.57023ZM44.1515 2.65938L66.6124 2.67497L66.6138 0.674968L44.1529 0.659383L44.1515 2.65938ZM89.66 1.69096L90.66 1.69165L90.6607 0.691652L89.6607 0.690958L89.66 1.69096ZM89.6545 9.60111L89.6538 10.6011L90.6538 10.6018L90.6545 9.60181L89.6545 9.60111ZM83.551 9.59688L83.5517 8.59688L82.5517 8.59618L82.551 9.59618L83.551 9.59688ZM83.529 41.2131L83.5283 42.2131L84.5283 42.2138L84.529 41.2138L83.529 41.2131ZM73.2507 41.2059L72.2507 41.2053L72.25 42.2053L73.25 42.2059L73.2507 41.2059ZM73.2727 9.58975L74.2727 9.59044L74.2734 8.59044L73.2734 8.58975L73.2727 9.58975ZM67.1936 9.58553L66.1936 9.58483L66.1929 10.5848L67.1929 10.5855L67.1936 9.58553ZM67.1991 1.67537L67.1997 0.675374L66.1997 0.67468L66.1991 1.67468L67.1991 1.67537ZM88.66 1.69026L88.6545 9.60042L90.6545 9.60181L90.66 1.69165L88.66 1.69026ZM89.6552 8.60111L83.5517 8.59688L83.5503 10.5969L89.6538 10.6011L89.6552 8.60111ZM82.551 9.59618L82.529 41.2124L84.529 41.2138L84.551 9.59757L82.551 9.59618ZM83.5297 40.2131L73.2514 40.2059L73.25 42.2059L83.5283 42.2131L83.5297 40.2131ZM74.2507 41.2066L74.2727 9.59044L72.2727 9.58905L72.2507 41.2053L74.2507 41.2066ZM73.2734 8.58975L67.1943 8.58553L67.1929 10.5855L73.272 10.5897L73.2734 8.58975ZM68.1936 9.58622L68.1991 1.67607L66.1991 1.67468L66.1936 9.58483L68.1936 9.58622ZM67.1984 2.67537L89.6593 2.69096L89.6607 0.690958L67.1997 0.675374L67.1984 2.67537ZM115.175 33.3005L114.182 33.1829L114.181 33.1915L115.175 33.3005ZM113.414 37.8158L112.605 37.2277L112.601 37.234L113.414 37.8158ZM97.8602 41.0277L97.4743 41.9503L97.4851 41.9547L97.8602 41.0277ZM91.9817 33.382L90.9888 33.5005L91.9817 33.382ZM91.9738 9.65155L90.9807 9.53401L90.9797 9.54259L91.9738 9.65155ZM93.7348 5.11175L92.926 4.52358L92.9214 4.52995L93.7348 5.11175ZM97.7408 1.96512L97.3411 1.04848L97.7408 1.96512ZM109.289 1.9243L108.903 2.84691L108.914 2.85129L109.289 1.9243ZM115.192 9.54559L114.199 9.66405L115.192 9.54559ZM104.89 8.34215L103.953 8.69263L103.96 8.71057L103.967 8.72824L104.89 8.34215ZM102.4 8.19394L101.578 7.62414L101.573 7.63106L102.4 8.19394ZM102.235 34.561L101.286 34.8766L101.29 34.8894L101.295 34.9021L102.235 34.561ZM104.896 34.4408L103.943 34.139L104.896 34.4408ZM114.474 24.8527C114.471 28.8234 114.371 31.5869 114.182 33.1829L116.168 33.418C116.372 31.694 116.471 28.8261 116.474 24.8541L114.474 24.8527ZM114.181 33.1915C114.02 34.6582 113.499 35.9988 112.605 37.2277L114.223 38.404C115.317 36.8999 115.97 35.2302 116.169 33.4094L114.181 33.1915ZM112.601 37.234C111.738 38.4407 110.559 39.3802 109.033 40.0459L109.832 41.8791C111.66 41.0823 113.136 39.924 114.228 38.3976L112.601 37.234ZM109.033 40.0459C107.507 40.7114 105.695 41.0585 103.573 41.0571L103.572 43.0571C105.91 43.0587 108.005 42.6761 109.832 41.8791L109.033 40.0459ZM103.573 41.0571C101.565 41.0557 99.7912 40.7303 98.2353 40.1007L97.4851 41.9547C99.3137 42.6946 101.348 43.0555 103.572 43.0571L103.573 41.0571ZM98.2461 40.1052C96.7269 39.4697 95.5247 38.5362 94.6135 37.305L93.0059 38.4948C94.1435 40.0319 95.6416 41.1836 97.4743 41.9503L98.2461 40.1052ZM94.6135 37.305C93.687 36.0532 93.1472 34.7099 92.9747 33.2636L90.9888 33.5005C91.2046 35.3096 91.8835 36.9783 93.0059 38.4948L94.6135 37.305ZM92.9747 33.2636C92.7884 31.7019 92.6919 28.908 92.6947 24.8376L90.6947 24.8362C90.6919 28.9038 90.7867 31.8066 90.9888 33.5005L92.9747 33.2636ZM92.6947 24.8376L92.6994 18.0749L90.6994 18.0735L90.6947 24.8362L92.6947 24.8376ZM92.6994 18.0749C92.7022 14.1037 92.7942 11.3447 92.9678 9.76051L90.9797 9.54259C90.793 11.2459 90.7022 14.102 90.6994 18.0735L92.6994 18.0749ZM92.9669 9.76908C93.1434 8.27739 93.6681 6.92367 94.5481 5.69356L92.9214 4.52995C91.8463 6.03286 91.1971 7.70567 90.9807 9.53402L92.9669 9.76908ZM94.5435 5.69991C95.424 4.48918 96.6128 3.54796 98.1406 2.88176L97.3411 1.04848C95.515 1.8448 94.0331 3.00133 92.926 4.52359L94.5435 5.69991ZM98.1406 2.88176C99.6667 2.21624 101.479 1.86908 103.6 1.87055L103.602 -0.129447C101.264 -0.131069 99.1688 0.251483 97.3411 1.04848L98.1406 2.88176ZM103.6 1.87055C105.605 1.87194 107.367 2.20455 108.903 2.84685L109.675 1.00176C107.858 0.241995 105.828 -0.127902 103.602 -0.129447L103.6 1.87055ZM108.914 2.85129C110.446 3.47129 111.652 4.39552 112.56 5.62261L114.168 4.43282C113.027 2.89156 111.516 1.74686 109.664 0.997322L108.914 2.85129ZM112.56 5.62261C113.486 6.87444 114.026 8.21769 114.199 9.66405L116.185 9.42713C115.969 7.61801 115.29 5.94935 114.168 4.43282L112.56 5.62261ZM114.199 9.66405C114.385 11.2257 114.482 14.0196 114.479 18.09L116.479 18.0914C116.482 14.0238 116.387 11.121 116.185 9.42713L114.199 9.66405ZM114.479 18.09L114.474 24.8527L116.474 24.8541L116.479 18.0914L114.479 18.09ZM106.205 11.8587C106.205 10.9237 106.179 10.138 106.123 9.51042C106.069 8.91196 105.981 8.36042 105.812 7.95606L103.967 8.72824C104.009 8.82858 104.08 9.11538 104.131 9.68886C104.18 10.2332 104.205 10.9531 104.205 11.8573L106.205 11.8587ZM105.826 7.99168C105.663 7.55503 105.382 7.17168 104.964 6.9092C104.557 6.65324 104.097 6.56035 103.646 6.56004L103.644 8.56004C103.829 8.56017 103.893 8.59785 103.9 8.60259C103.905 8.6053 103.908 8.60801 103.914 8.61532C103.92 8.62375 103.936 8.64613 103.953 8.69263L105.826 7.99168ZM103.646 6.56004C102.798 6.55945 102.068 6.91785 101.578 7.62416L103.221 8.76372C103.318 8.62408 103.419 8.55988 103.644 8.56004L103.646 6.56004ZM101.573 7.63106C101.408 7.87326 101.312 8.15577 101.249 8.40381C101.182 8.66653 101.132 8.96934 101.094 9.30112C101.018 9.96504 100.983 10.8211 100.982 11.8551L102.982 11.8565C102.983 10.8559 103.018 10.0844 103.081 9.52773C103.113 9.24921 103.15 9.04345 103.187 8.89934C103.227 8.74055 103.253 8.71798 103.226 8.75682L101.573 7.63106ZM100.982 11.8551L100.969 30.3121L102.969 30.3135L102.982 11.8565L100.982 11.8551ZM100.969 30.3121C100.968 31.4695 100.99 32.4206 101.036 33.1584C101.08 33.8617 101.151 34.4702 101.286 34.8766L103.184 34.2454C103.14 34.1146 103.077 33.7464 103.032 33.0336C102.99 32.3553 102.968 31.451 102.969 30.3135L100.969 30.3121ZM101.295 34.9021C101.461 35.359 101.754 35.7527 102.188 36.0185C102.608 36.2756 103.085 36.3673 103.552 36.3676L103.553 34.3676C103.337 34.3674 103.252 34.3245 103.233 34.3127C103.223 34.3071 103.218 34.3024 103.213 34.2953C103.206 34.2871 103.191 34.2655 103.175 34.2199L101.295 34.9021ZM103.552 36.3676C104.047 36.3679 104.548 36.2582 104.981 35.9594C105.421 35.6558 105.698 35.2214 105.849 34.7426L103.943 34.139C103.899 34.2785 103.853 34.3078 103.846 34.3131C103.831 34.3233 103.758 34.3677 103.553 34.3676L103.552 36.3676ZM105.849 34.7426C105.987 34.3088 106.065 33.6805 106.115 32.9392C106.166 32.172 106.191 31.1976 106.192 30.0227L104.192 30.0214C104.191 31.174 104.166 32.0998 104.119 32.8055C104.07 33.5371 104.001 33.9544 103.943 34.139L105.849 34.7426ZM106.192 30.0227L106.205 11.8587L104.205 11.8573L104.192 30.0214L106.192 30.0227ZM142.519 33.3194L141.526 33.2019L141.525 33.2105L142.519 33.3194ZM140.758 37.8348L139.949 37.2466L139.945 37.253L140.758 37.8348ZM125.204 41.0467L124.818 41.9693L124.829 41.9737L125.204 41.0467ZM119.325 33.401L118.333 33.5195L119.325 33.401ZM119.318 9.67052L118.324 9.55299L118.323 9.56156L119.318 9.67052ZM121.078 5.13073L120.27 4.54255L120.265 4.54892L121.078 5.13073ZM125.085 1.98409L124.685 1.06745L125.085 1.98409ZM136.632 1.94328L136.247 2.86588L136.257 2.87026L136.632 1.94328ZM142.535 9.56456L141.542 9.68302L142.535 9.56456ZM132.233 8.36112L131.297 8.7116L131.304 8.72954L131.311 8.74721L132.233 8.36112ZM129.743 8.21291L128.922 7.64311L128.917 7.65003L129.743 8.21291ZM129.579 34.58L128.63 34.8956L128.634 34.9084L128.639 34.9211L129.579 34.58ZM132.24 34.4598L131.286 34.158L132.24 34.4598ZM141.818 24.8717C141.815 28.8424 141.715 31.6059 141.526 33.2019L143.512 33.437C143.716 31.7129 143.815 28.8451 143.818 24.8731L141.818 24.8717ZM141.525 33.2105C141.364 34.6772 140.843 36.0178 139.949 37.2467L141.567 38.423C142.661 36.9188 143.313 35.2492 143.513 33.4284L141.525 33.2105ZM139.945 37.253C139.081 38.4597 137.903 39.3991 136.377 40.0648L137.176 41.8981C139.003 41.1013 140.479 39.943 141.571 38.4166L139.945 37.253ZM136.377 40.0648C134.85 40.7303 133.038 41.0775 130.917 41.076L130.915 43.076C133.254 43.0777 135.348 42.6951 137.176 41.8981L136.377 40.0648ZM130.917 41.076C128.909 41.0746 127.135 40.7493 125.579 40.1197L124.829 41.9737C126.657 42.7136 128.691 43.0745 130.915 43.076L130.917 41.076ZM125.59 40.1241C124.071 39.4887 122.868 38.5552 121.957 37.324L120.35 38.5138C121.487 40.0509 122.985 41.2026 124.818 41.9692L125.59 40.1241ZM121.957 37.324C121.031 36.0722 120.491 34.7289 120.318 33.2825L118.333 33.5195C118.548 35.3286 119.227 36.9972 120.35 38.5138L121.957 37.324ZM120.318 33.2825C120.132 31.7209 120.036 28.927 120.038 24.8566L118.038 24.8552C118.036 28.9228 118.13 31.8256 118.333 33.5195L120.318 33.2825ZM120.038 24.8566L120.043 18.0939L118.043 18.0925L118.038 24.8552L120.038 24.8566ZM120.043 18.0939C120.046 14.1227 120.138 11.3637 120.312 9.77948L118.323 9.56156C118.137 11.2648 118.046 14.121 118.043 18.0925L120.043 18.0939ZM120.311 9.78805C120.487 8.29636 121.012 6.94264 121.892 5.71253L120.265 4.54892C119.19 6.05183 118.541 7.72464 118.324 9.55299L120.311 9.78805ZM121.887 5.71889C122.768 4.50816 123.957 3.56693 125.484 2.90073L124.685 1.06745C122.859 1.86377 121.377 3.0203 120.27 4.54257L121.887 5.71889ZM125.484 2.90073C127.01 2.23521 128.823 1.88805 130.944 1.88952L130.945 -0.110475C128.607 -0.112097 126.513 0.270455 124.685 1.06745L125.484 2.90073ZM130.944 1.88952C132.949 1.89092 134.711 2.22352 136.247 2.86582L137.018 1.02073C135.202 0.260968 133.172 -0.10893 130.945 -0.110475L130.944 1.88952ZM136.257 2.87026C137.79 3.49026 138.995 4.4145 139.904 5.64159L141.511 4.45179C140.371 2.91054 138.86 1.76583 137.008 1.01629L136.257 2.87026ZM139.904 5.64159C140.83 6.89341 141.37 8.23666 141.542 9.68302L143.528 9.4461C143.313 7.63698 142.634 5.96832 141.511 4.45179L139.904 5.64159ZM141.542 9.68302C141.729 11.2447 141.825 14.0386 141.822 18.109L143.822 18.1104C143.825 14.0428 143.73 11.1399 143.528 9.4461L141.542 9.68302ZM141.822 18.109L141.818 24.8717L143.818 24.8731L143.822 18.1104L141.822 18.109ZM133.548 11.8777C133.549 10.9427 133.523 10.157 133.467 9.52939C133.413 8.93093 133.325 8.3794 133.156 7.97504L131.311 8.74721C131.353 8.84756 131.423 9.13435 131.475 9.70783C131.523 10.2522 131.549 10.972 131.548 11.8763L133.548 11.8777ZM133.17 8.01065C133.007 7.574 132.726 7.19066 132.308 6.92817C131.901 6.67221 131.44 6.57932 130.99 6.57901L130.988 8.57901C131.172 8.57914 131.237 8.61682 131.244 8.62156C131.248 8.62427 131.252 8.62698 131.258 8.63429C131.264 8.64272 131.28 8.6651 131.297 8.7116L133.17 8.01065ZM130.99 6.57901C130.141 6.57842 129.411 6.93682 128.922 7.64313L130.565 8.78269C130.662 8.64305 130.762 8.57885 130.988 8.57901L130.99 6.57901ZM128.917 7.65003C128.752 7.89223 128.656 8.17474 128.593 8.42278C128.525 8.68551 128.476 8.98831 128.438 9.3201C128.362 9.98401 128.326 10.8401 128.326 11.874L130.326 11.8754C130.326 10.8749 130.361 10.1034 130.425 9.5467C130.457 9.26818 130.493 9.06242 130.53 8.91831C130.571 8.75953 130.596 8.73695 130.57 8.7758L128.917 7.65003ZM128.326 11.874L128.313 30.3311L130.313 30.3325L130.326 11.8754L128.326 11.874ZM128.313 30.3311C128.312 31.4885 128.334 32.4396 128.38 33.1774C128.424 33.8807 128.495 34.4891 128.63 34.8956L130.527 34.2644C130.484 34.1336 130.421 33.7654 130.376 33.0526C130.334 32.3743 130.312 31.47 130.313 30.3325L128.313 30.3311ZM128.639 34.9211C128.804 35.3779 129.098 35.7717 129.532 36.0375C129.952 36.2946 130.429 36.3862 130.896 36.3866L130.897 34.3866C130.681 34.3864 130.596 34.3434 130.576 34.3316C130.567 34.3261 130.562 34.3214 130.557 34.3143C130.55 34.3061 130.535 34.2845 130.519 34.2389L128.639 34.9211ZM130.896 36.3866C131.391 36.3869 131.892 36.2772 132.325 35.9784C132.765 35.6748 133.042 35.2404 133.193 34.7616L131.286 34.158C131.242 34.2975 131.197 34.3268 131.189 34.3321C131.175 34.3422 131.102 34.3867 130.897 34.3866L130.896 36.3866ZM133.193 34.7616C133.33 34.3278 133.409 33.6994 133.458 32.9582C133.51 32.1909 133.535 31.2165 133.536 30.0417L131.536 30.0403C131.535 31.193 131.51 32.1188 131.463 32.8245C131.414 33.5561 131.345 33.9734 131.286 34.158L133.193 34.7616ZM133.536 30.0417L133.548 11.8777L131.548 11.8763L131.536 30.0403L133.536 30.0417Z" fill="#BD3455"/>
</svg>
