<svg version="1.2" xmlns="http://www.w3.org/2000/svg" viewBox="0 0 40 16" width="40" height="16">
	<title>h2_gallery-svg</title>
	<defs>
		<clipPath clipPathUnits="userSpaceOnUse" id="cp1">
			<path d="m5.76 6.81h-2.31v-0.82q0-0.78-0.07-0.98-0.06-0.19-0.31-0.19-0.21 0-0.29 0.17-0.08 0.16-0.08 0.86v4.35q0 0.61 0.08 0.8 0.08 0.19 0.31 0.19 0.25 0 0.34-0.21 0.09-0.22 0.09-0.85v-1.08h-0.47v-1.38h2.71v4.87h-1.46l-0.21-0.65q-0.24 0.42-0.6 0.63-0.35 0.21-0.84 0.21-0.58 0-1.09-0.29-0.51-0.29-0.77-0.71-0.26-0.43-0.33-0.89-0.07-0.47-0.07-1.41v-2.69q0-1.3 0.14-1.89 0.14-0.59 0.79-1.07 0.65-0.49 1.68-0.49 1.01 0 1.68 0.42 0.67 0.43 0.87 1.01 0.21 0.59 0.21 1.7zm5.22-3.34l1.32 9.07h-2.36l-0.12-1.63h-0.83l-0.13 1.63h-2.39l1.17-9.07zm-1.22 5.83q-0.18-1.54-0.35-3.8-0.35 2.6-0.44 3.8zm5.58-5.83v7.25h1.4v1.82h-3.71v-9.07zm4.62 0v7.25h1.4v1.82h-3.71v-9.07zm6.57 0l1.33 9.07h-2.37l-0.11-1.63h-0.83l-0.14 1.63h-2.39l1.17-9.07zm-1.22 5.83q-0.17-1.54-0.35-3.8-0.35 2.6-0.44 3.8zm3.28-5.83h1.63q1.64 0 2.21 0.13 0.58 0.13 0.94 0.66 0.37 0.53 0.37 1.69 0 1.06-0.26 1.42-0.25 0.36-1.01 0.44 0.69 0.17 0.92 0.46 0.24 0.29 0.29 0.54 0.06 0.24 0.06 1.34v2.39h-2.14v-3.02q0-0.72-0.12-0.9-0.11-0.17-0.58-0.17v4.09h-2.31zm2.31 1.55v2.01q0.39 0 0.54-0.11 0.16-0.11 0.16-0.71v-0.49q0-0.44-0.16-0.57-0.14-0.13-0.54-0.13zm9-1.55l-1.69 5.78v3.28h-2.14v-3.28l-1.62-5.78h2.12q0.5 2.64 0.56 3.56 0.19-1.45 0.64-3.56z"/>
		</clipPath>
	</defs>
	<style>
		.s0 { fill: #af2043 } 
	</style>
	<path id="Layer" fill-rule="evenodd" class="s0" d="m5.8 6.8h-2.4v-0.8q0-0.8 0-1-0.1-0.2-0.3-0.2-0.2 0-0.3 0.2-0.1 0.2-0.1 0.8v4.4q0 0.6 0.1 0.8 0.1 0.2 0.3 0.2 0.2 0 0.3-0.2 0.1-0.2 0.1-0.9v-1h-0.4v-1.4h2.7v4.8h-1.5l-0.2-0.6q-0.2 0.4-0.6 0.6-0.4 0.2-0.9 0.2-0.5 0-1-0.3-0.5-0.2-0.8-0.7-0.3-0.4-0.3-0.9-0.1-0.4-0.1-1.4v-2.7q0-1.3 0.1-1.8 0.2-0.6 0.8-1.1 0.7-0.5 1.7-0.5 1 0 1.7 0.4 0.7 0.4 0.9 1 0.2 0.6 0.2 1.7zm5.2-3.3l1.3 9h-2.4l-0.1-1.6h-0.8l-0.1 1.6h-2.4l1.1-9zm-1.2 5.8q-0.2-1.5-0.3-3.8-0.4 2.6-0.5 3.8zm5.6-5.8v7.2h1.4v1.8h-3.7v-9zm4.6 0v7.2h1.4v1.8h-3.7v-9zm6.6 0l1.3 9h-2.4l-0.1-1.6h-0.8l-0.1 1.6h-2.4l1.1-9zm-1.2 5.8q-0.2-1.5-0.3-3.8-0.4 2.6-0.5 3.8zm3.3-5.8h1.6q1.7 0 2.3 0.1 0.5 0.1 0.9 0.7 0.4 0.5 0.4 1.7 0 1-0.3 1.4-0.3 0.3-1 0.4 0.7 0.2 0.9 0.5 0.2 0.3 0.3 0.5 0.1 0.3 0.1 1.4v2.3h-2.2v-3q0-0.7-0.1-0.9-0.1-0.1-0.6-0.1v4h-2.3zm2.3 1.6v2q0.4 0 0.6-0.1 0.1-0.1 0.1-0.7v-0.5q0-0.4-0.1-0.6-0.2-0.1-0.6-0.1zm9-1.6l-1.7 5.8v3.3h-2.1v-3.3l-1.6-5.8h2.1q0.5 2.7 0.6 3.6 0.1-1.4 0.6-3.6z"/>
	<g id="Clip-Path" clip-path="url(#cp1)">
		<g id="Layer">
			<path id="Layer" d="m39.9 12.5h-39.9v-9.4h39.9z"/>
		</g>
	</g>
</svg>