<svg version="1.2" xmlns="http://www.w3.org/2000/svg" viewBox="0 0 40 8" width="40" height="8">
	<title>h2_lucky-svg</title>
	<defs>
		<clipPath clipPathUnits="userSpaceOnUse" id="cp1">
			<path d="m2.53 1.74v0.9h-0.68v3.63h-1.14v-3.63h-0.68v-0.9zm2.18 0l0.66 4.53h-1.17l-0.06-0.82h-0.41l-0.07 0.82h-1.18l0.58-4.53zm-0.61 2.91q-0.08-0.77-0.17-1.9-0.18 1.3-0.22 1.9zm3.62-2.91v0.9h-0.68v3.63h-1.14v-3.63h-0.68v-0.9zm2.73 0v0.9h-0.68v3.63h-1.14v-3.63h-0.68v-0.9zm3.04 2.65q0 0.68-0.03 0.97-0.03 0.28-0.2 0.52-0.16 0.23-0.44 0.36-0.28 0.12-0.65 0.12-0.35 0-0.64-0.11-0.28-0.12-0.45-0.36-0.17-0.24-0.2-0.52-0.03-0.28-0.03-0.98v-0.77q0-0.69 0.03-0.97 0.03-0.29 0.19-0.52 0.17-0.24 0.45-0.36 0.28-0.13 0.65-0.13 0.35 0 0.63 0.12 0.29 0.12 0.46 0.36 0.17 0.24 0.2 0.52 0.03 0.28 0.03 0.98zm-1.14-1.49q0-0.32-0.04-0.41-0.03-0.09-0.13-0.09-0.09 0-0.14 0.08-0.05 0.07-0.05 0.42v2.11q0 0.4 0.03 0.49 0.03 0.09 0.15 0.09 0.11 0 0.15-0.1 0.03-0.11 0.03-0.51zm4.35 1.49q0 0.68-0.03 0.97-0.03 0.28-0.19 0.51-0.17 0.24-0.45 0.36-0.28 0.13-0.65 0.13-0.35 0-0.64-0.12-0.28-0.12-0.45-0.36-0.17-0.23-0.2-0.51-0.03-0.28-0.03-0.98v-0.78q0-0.68 0.03-0.96 0.03-0.29 0.19-0.52 0.17-0.24 0.45-0.36 0.28-0.13 0.65-0.13 0.35 0 0.63 0.12 0.29 0.12 0.46 0.36 0.17 0.23 0.2 0.51 0.03 0.28 0.03 0.98zm-1.14-1.49q0-0.31-0.04-0.4-0.03-0.09-0.13-0.09-0.09 0-0.14 0.07-0.05 0.07-0.05 0.42v2.12q0 0.39 0.03 0.49 0.03 0.09 0.15 0.09 0.11 0 0.15-0.11 0.03-0.1 0.03-0.5zm2.89-1.17h1.14q0.54 0 0.82 0.09 0.28 0.09 0.45 0.35 0.17 0.26 0.17 0.85 0 0.4-0.12 0.56-0.12 0.15-0.48 0.24 0.4 0.09 0.54 0.3 0.14 0.22 0.14 0.66v0.42q0 0.46-0.1 0.68-0.1 0.22-0.32 0.3-0.23 0.08-0.92 0.08h-1.32zm1.14 0.78v1.01q0.08-0.01 0.12-0.01 0.17 0 0.21-0.08 0.05-0.09 0.05-0.49 0-0.21-0.04-0.3-0.04-0.08-0.1-0.11-0.06-0.02-0.24-0.02zm0 1.71v1.27q0.25-0.01 0.31-0.08 0.07-0.07 0.07-0.34v-0.43q0-0.29-0.06-0.35-0.06-0.06-0.32-0.07zm4.54-2.49l-0.83 2.89v1.64h-1.06v-1.64l-0.81-2.89h1.05q0.25 1.33 0.28 1.79 0.1-0.73 0.32-1.79zm2.66 0v3.63h0.7v0.9h-1.84v-4.53zm3.74 0v3.03q0 0.52-0.03 0.73-0.04 0.2-0.2 0.42-0.16 0.22-0.42 0.34-0.26 0.11-0.62 0.11-0.39 0-0.69-0.14-0.31-0.13-0.45-0.35-0.15-0.21-0.18-0.45-0.03-0.24-0.03-1.01v-2.68h1.15v3.4q0 0.3 0.03 0.38 0.03 0.08 0.12 0.08 0.11 0 0.14-0.09 0.03-0.09 0.03-0.43v-3.34zm3.29 1.98h-1.15v-0.79q0-0.35-0.04-0.43-0.03-0.09-0.16-0.09-0.14 0-0.18 0.11-0.03 0.1-0.03 0.45v2.1q0 0.33 0.03 0.43 0.04 0.1 0.17 0.1 0.13 0 0.17-0.1 0.04-0.1 0.04-0.47v-0.57h1.15v0.18q0 0.7-0.1 0.99-0.1 0.3-0.43 0.52-0.33 0.22-0.81 0.22-0.5 0-0.83-0.19-0.33-0.19-0.43-0.52-0.11-0.33-0.11-1v-1.32q0-0.49 0.03-0.73 0.04-0.25 0.2-0.48 0.16-0.22 0.45-0.35 0.28-0.13 0.66-0.13 0.5 0 0.83 0.2 0.33 0.2 0.43 0.5 0.11 0.3 0.11 0.94zm3.3-1.98l-0.66 2.05 0.72 2.48h-1.18l-0.46-1.94v1.94h-1.15v-4.53h1.15v1.76l0.51-1.76zm2.86 0l-0.83 2.89v1.64h-1.06v-1.64l-0.81-2.89h1.06q0.24 1.33 0.27 1.78 0.1-0.72 0.32-1.78z"/>
		</clipPath>
	</defs>
	<style>
		.s0 { fill: #af2043 } 
	</style>
	<path id="Layer" fill-rule="evenodd" class="s0" d="m2.5 1.7v0.9h-0.6v3.7h-1.2v-3.7h-0.7v-0.9zm2.2 0l0.7 4.6h-1.2l-0.1-0.8h-0.4v0.8h-1.2l0.6-4.6zm-0.6 3q-0.1-0.8-0.2-1.9-0.2 1.2-0.2 1.9zm3.6-3v0.9h-0.7v3.7h-1.1v-3.7h-0.7v-0.9zm2.7 0v0.9h-0.7v3.7h-1.1v-3.7h-0.7v-0.9zm3.1 2.7q0 0.7-0.1 1 0 0.2-0.2 0.5-0.1 0.2-0.4 0.3-0.3 0.2-0.7 0.2-0.3 0-0.6-0.2-0.3-0.1-0.5-0.3-0.1-0.2-0.2-0.5 0-0.3 0-1v-0.8q0-0.7 0-0.9 0.1-0.3 0.2-0.6 0.2-0.2 0.5-0.3 0.3-0.2 0.6-0.2 0.4 0 0.7 0.2 0.2 0.1 0.4 0.3 0.2 0.3 0.2 0.5 0.1 0.3 0.1 1zm-1.2-1.5q0-0.3 0-0.4-0.1-0.1-0.2-0.1-0.1 0-0.1 0.1 0 0.1 0 0.4v2.1q0 0.4 0 0.5 0 0.1 0.1 0.1 0.1 0 0.2-0.1 0-0.1 0-0.5zm4.4 1.5q0 0.7-0.1 1 0 0.2-0.2 0.5-0.1 0.2-0.4 0.3-0.3 0.2-0.7 0.2-0.3 0-0.6-0.1-0.3-0.2-0.4-0.4-0.2-0.2-0.3-0.5 0-0.3 0-1v-0.8q0-0.7 0-0.9 0.1-0.3 0.2-0.6 0.2-0.2 0.5-0.3 0.3-0.2 0.6-0.2 0.4 0 0.7 0.2 0.3 0.1 0.4 0.3 0.2 0.3 0.2 0.5 0.1 0.3 0.1 1zm-1.2-1.5q0-0.3 0-0.4 0-0.1-0.2-0.1 0 0-0.1 0.1 0 0.1 0 0.4v2.1q0 0.4 0 0.5 0 0.1 0.1 0.1 0.2 0 0.2-0.1 0-0.1 0-0.5zm2.9-1.1h1.2q0.5 0 0.8 0 0.2 0.1 0.4 0.4 0.2 0.3 0.2 0.8 0 0.4-0.1 0.6-0.1 0.2-0.5 0.2 0.4 0.1 0.5 0.3 0.2 0.3 0.2 0.7v0.4q0 0.5-0.1 0.7-0.1 0.2-0.4 0.3-0.2 0.1-0.9 0.1h-1.3zm1.2 0.8v1q0 0 0.1 0 0.1 0 0.2-0.1 0-0.1 0-0.5 0-0.2 0-0.3 0-0.1-0.1-0.1-0.1 0-0.2 0zm0 1.7v1.2q0.2 0 0.3 0 0-0.1 0-0.4v-0.4q0-0.3 0-0.4-0.1 0-0.3 0zm4.5-2.5l-0.8 2.9v1.6h-1.1v-1.6l-0.8-2.9h1q0.3 1.3 0.3 1.8 0.1-0.8 0.3-1.8zm2.7 0v3.6h0.7v0.9h-1.8v-4.5zm3.7 0v3q0 0.5 0 0.7-0.1 0.2-0.2 0.5-0.2 0.2-0.5 0.3-0.2 0.1-0.6 0.1-0.4 0-0.7-0.1-0.3-0.2-0.4-0.4-0.2-0.2-0.2-0.4 0-0.3 0-1v-2.7h1.1v3.4q0 0.3 0.1 0.4 0 0 0.1 0 0.1 0 0.1 0 0.1-0.1 0.1-0.5v-3.3zm3.2 2h-1.1v-0.8q0-0.4 0-0.5-0.1 0-0.2 0-0.1 0-0.2 0.1 0 0.1 0 0.4v2.1q0 0.3 0 0.4 0.1 0.1 0.2 0.1 0.1 0 0.2-0.1 0-0.1 0-0.4v-0.6h1.1v0.2q0 0.7-0.1 1-0.1 0.3-0.4 0.5-0.3 0.2-0.8 0.2-0.5 0-0.8-0.2-0.4-0.2-0.5-0.5-0.1-0.3-0.1-1v-1.3q0-0.5 0.1-0.8 0-0.2 0.2-0.4 0.1-0.3 0.4-0.4 0.3-0.1 0.7-0.1 0.5 0 0.8 0.2 0.3 0.2 0.4 0.5 0.1 0.3 0.1 0.9zm3.3-1.9l-0.6 2 0.7 2.5h-1.2l-0.4-2v2h-1.2v-4.5h1.2v1.7l0.5-1.7zm2.8 0l-0.8 2.8v1.7h-1.1v-1.7l-0.8-2.8h1.1q0.2 1.3 0.3 1.7 0.1-0.7 0.3-1.7z"/>
	<g id="Clip-Path" clip-path="url(#cp1)">
		<g id="Layer">
			<path id="Layer" d="m39.8 6.4h-39.6v-4.8h39.6z"/>
		</g>
	</g>
</svg>