<svg width="32" height="32" viewBox="0 0 32 32" fill="none" xmlns="http://www.w3.org/2000/svg">
<path d="M13.3333 29.6667C11.2889 29.6667 9.55556 28.9556 8.13333 27.5333C6.71111 26.1111 6 24.3778 6 22.3333V8.33333C6 6.86667 6.52222 5.61111 7.56667 4.56667C8.61111 3.52222 9.86667 3 11.3333 3C12.8 3 14.0556 3.52222 15.1 4.56667C16.1444 5.61111 16.6667 6.86667 16.6667 8.33333V19H14.6667V8.33333C14.6667 7.4 14.3444 6.61111 13.7 5.96667C13.0556 5.32222 12.2667 5 11.3333 5C10.4 5 9.61111 5.32222 8.96667 5.96667C8.32222 6.61111 8 7.4 8 8.33333V22.3333C8 23.8 8.52222 25.0556 9.56667 26.1C10.6111 27.1444 11.8667 27.6667 13.3333 27.6667C13.9778 27.6667 14.5836 27.5609 15.1507 27.3493C15.7169 27.1387 16.2222 26.8444 16.6667 26.4667V28.8667C16.1556 29.1111 15.6222 29.3053 15.0667 29.4493C14.5111 29.5942 13.9333 29.6667 13.3333 29.6667ZM19.3333 28.3333V24.3333H15.3333V21.6667H19.3333V17.6667H22V21.6667H26V24.3333H22V28.3333H19.3333ZM13.3333 22.3333V24.3333C12.4 24.3333 11.6111 24.0111 10.9667 23.3667C10.3222 22.7222 10 21.9333 10 21V8.33333H12V21C12 21.3778 12.128 21.6942 12.384 21.9493C12.6391 22.2053 12.9556 22.3333 13.3333 22.3333ZM18.6667 15V8.33333H20.6667V15H18.6667Z" fill="#AF2043"/>
</svg>
