<svg width="124" height="110" viewBox="0 0 124 110" fill="none" xmlns="http://www.w3.org/2000/svg">
<g filter="url(#filter0_i_1301_8474)">
<path d="M62.4191 107.894L62.4184 107.893C62.4186 107.893 62.4188 107.894 62.4191 107.894L62 108.167L62.4191 107.894ZM62 107.25L11.0724 29H112.928L62 107.25Z" stroke="#AF2043" stroke-width="3"/>
</g>
<path d="M18.3223 37.3369H23.2441C26.4212 37.3369 28.5671 37.4827 29.6816 37.7744C30.8066 38.0661 31.6608 38.5452 32.2441 39.2119C32.8275 39.8786 33.1921 40.6234 33.3379 41.4463C33.4837 42.2588 33.5566 43.863 33.5566 46.2588V55.1182C33.5566 57.389 33.4473 58.9098 33.2285 59.6807C33.0202 60.4411 32.6504 61.04 32.1191 61.4775C31.5879 61.9046 30.9316 62.2067 30.1504 62.3838C29.3691 62.5505 28.1921 62.6338 26.6191 62.6338H18.3223V37.3369ZM24.9004 41.665V58.3057C25.8483 58.3057 26.4316 58.1182 26.6504 57.7432C26.8691 57.3577 26.9785 56.3213 26.9785 54.6338V44.8057C26.9785 43.6598 26.9421 42.9255 26.8691 42.6025C26.7962 42.2796 26.6296 42.0452 26.3691 41.8994C26.1087 41.7432 25.6191 41.665 24.9004 41.665ZM36.0098 37.3369H46.9785V42.3994H42.5879V47.1963H46.6973V52.0088H42.5879V57.5713H47.416V62.6338H36.0098V37.3369ZM63.2598 44.9932H57.1504V43.1182C57.1504 42.2432 57.0723 41.6859 56.916 41.4463C56.7598 41.2067 56.4993 41.0869 56.1348 41.0869C55.7389 41.0869 55.4368 41.2484 55.2285 41.5713C55.0306 41.8942 54.9316 42.3838 54.9316 43.04C54.9316 43.8838 55.0462 44.5192 55.2754 44.9463C55.4941 45.3734 56.1139 45.889 57.1348 46.4932C60.0618 48.2327 61.9056 49.6598 62.666 50.7744C63.4264 51.889 63.8066 53.6859 63.8066 56.165C63.8066 57.9671 63.5931 59.2952 63.166 60.1494C62.7493 61.0036 61.9368 61.7223 60.7285 62.3057C59.5202 62.8786 58.1139 63.165 56.5098 63.165C54.7493 63.165 53.2441 62.8317 51.9941 62.165C50.7546 61.4984 49.9421 60.6494 49.5566 59.6182C49.1712 58.5869 48.9785 57.1234 48.9785 55.2275V53.5713H55.0879V56.6494C55.0879 57.5973 55.1712 58.2067 55.3379 58.4775C55.515 58.7484 55.8223 58.8838 56.2598 58.8838C56.6973 58.8838 57.0202 58.7119 57.2285 58.3682C57.4473 58.0244 57.5566 57.514 57.5566 56.8369C57.5566 55.3473 57.3535 54.3734 56.9473 53.915C56.5306 53.4567 55.5046 52.6911 53.8691 51.6182C52.2337 50.5348 51.1504 49.7484 50.6191 49.2588C50.0879 48.7692 49.6452 48.0921 49.291 47.2275C48.9473 46.363 48.7754 45.2588 48.7754 43.915C48.7754 41.9775 49.0202 40.5609 49.5098 39.665C50.0098 38.7692 50.8118 38.0713 51.916 37.5713C53.0202 37.0609 54.3535 36.8057 55.916 36.8057C57.6243 36.8057 59.0775 37.0817 60.2754 37.6338C61.4837 38.1859 62.2806 38.8838 62.666 39.7275C63.0618 40.5609 63.2598 41.9827 63.2598 43.9932V44.9932ZM79.1348 37.3369V42.3994H75.2285V62.6338H68.6504V42.3994H64.7598V37.3369H79.1348ZM87.2129 37.3369V62.6338H80.6348V37.3369H87.2129ZM104.541 37.3369V62.6338H98.7754L95.3535 51.1338V62.6338H89.8535V37.3369H95.3535L99.041 48.7275V37.3369H104.541Z" fill="#797D83"/>
<path d="M49.4609 66.5137V68.4121H47.9961V76H45.5293V68.4121H44.0703V66.5137H49.4609ZM53.8027 66.5137L55.2148 76H52.6895L52.5664 74.2949H51.6816L51.5352 76H48.9805L50.2344 66.5137H53.8027ZM52.4961 72.6133C52.3711 71.5391 52.2461 70.2129 52.1211 68.6348C51.8711 70.4473 51.7148 71.7734 51.6523 72.6133H52.4961ZM59.9375 66.5137V68.4121H58.4727V76H56.0059V68.4121H54.5469V66.5137H59.9375ZM65.4688 66.5137V68.4121H64.0039V76H61.5371V68.4121H60.0781V66.5137H65.4688ZM71.668 72.0684C71.668 73.0215 71.6445 73.6973 71.5977 74.0957C71.5547 74.4902 71.4141 74.8516 71.1758 75.1797C70.9414 75.5078 70.623 75.7598 70.2207 75.9355C69.8184 76.1113 69.3496 76.1992 68.8145 76.1992C68.3066 76.1992 67.8496 76.1172 67.4434 75.9531C67.041 75.7852 66.7168 75.5352 66.4707 75.2031C66.2246 74.8711 66.0781 74.5098 66.0312 74.1191C65.9844 73.7285 65.9609 73.0449 65.9609 72.0684V70.4453C65.9609 69.4922 65.9824 68.8184 66.0254 68.4238C66.0723 68.0254 66.2129 67.6621 66.4473 67.334C66.6855 67.0059 67.0059 66.7539 67.4082 66.5781C67.8105 66.4023 68.2793 66.3145 68.8145 66.3145C69.3223 66.3145 69.7773 66.3984 70.1797 66.5664C70.5859 66.7305 70.9121 66.9785 71.1582 67.3105C71.4043 67.6426 71.5508 68.0039 71.5977 68.3945C71.6445 68.7852 71.668 69.4688 71.668 70.4453V72.0684ZM69.2012 68.9512C69.2012 68.5098 69.1758 68.2285 69.125 68.1074C69.0781 67.9824 68.9785 67.9199 68.8262 67.9199C68.6973 67.9199 68.5977 67.9707 68.5273 68.0723C68.4609 68.1699 68.4277 68.4629 68.4277 68.9512V73.3809C68.4277 73.9316 68.4492 74.2715 68.4922 74.4004C68.5391 74.5293 68.6445 74.5938 68.8086 74.5938C68.9766 74.5938 69.084 74.5195 69.1309 74.3711C69.1777 74.2227 69.2012 73.8691 69.2012 73.3105V68.9512ZM78.2305 72.0684C78.2305 73.0215 78.207 73.6973 78.1602 74.0957C78.1172 74.4902 77.9766 74.8516 77.7383 75.1797C77.5039 75.5078 77.1855 75.7598 76.7832 75.9355C76.3809 76.1113 75.9121 76.1992 75.377 76.1992C74.8691 76.1992 74.4121 76.1172 74.0059 75.9531C73.6035 75.7852 73.2793 75.5352 73.0332 75.2031C72.7871 74.8711 72.6406 74.5098 72.5938 74.1191C72.5469 73.7285 72.5234 73.0449 72.5234 72.0684V70.4453C72.5234 69.4922 72.5449 68.8184 72.5879 68.4238C72.6348 68.0254 72.7754 67.6621 73.0098 67.334C73.248 67.0059 73.5684 66.7539 73.9707 66.5781C74.373 66.4023 74.8418 66.3145 75.377 66.3145C75.8848 66.3145 76.3398 66.3984 76.7422 66.5664C77.1484 66.7305 77.4746 66.9785 77.7207 67.3105C77.9668 67.6426 78.1133 68.0039 78.1602 68.3945C78.207 68.7852 78.2305 69.4688 78.2305 70.4453V72.0684ZM75.7637 68.9512C75.7637 68.5098 75.7383 68.2285 75.6875 68.1074C75.6406 67.9824 75.541 67.9199 75.3887 67.9199C75.2598 67.9199 75.1602 67.9707 75.0898 68.0723C75.0234 68.1699 74.9902 68.4629 74.9902 68.9512V73.3809C74.9902 73.9316 75.0117 74.2715 75.0547 74.4004C75.1016 74.5293 75.207 74.5938 75.3711 74.5938C75.5391 74.5938 75.6465 74.5195 75.6934 74.3711C75.7402 74.2227 75.7637 73.8691 75.7637 73.3105V68.9512Z" fill="#797D83"/>
<defs>
<filter id="filter0_i_1301_8474" x="9.14844" y="27.5" width="106.703" height="82.667" filterUnits="userSpaceOnUse" color-interpolation-filters="sRGB">
<feFlood flood-opacity="0" result="BackgroundImageFix"/>
<feBlend mode="normal" in="SourceGraphic" in2="BackgroundImageFix" result="shape"/>
<feColorMatrix in="SourceAlpha" type="matrix" values="0 0 0 0 0 0 0 0 0 0 0 0 0 0 0 0 0 0 127 0" result="hardAlpha"/>
<feOffset dx="1" dy="1"/>
<feGaussianBlur stdDeviation="3"/>
<feComposite in2="hardAlpha" operator="arithmetic" k2="-1" k3="1"/>
<feColorMatrix type="matrix" values="0 0 0 0 0 0 0 0 0 0 0 0 0 0 0 0 0 0 0.54 0"/>
<feBlend mode="normal" in2="shape" result="effect1_innerShadow_1301_8474"/>
</filter>
</defs>
</svg>
