<svg width="32" height="32" viewBox="0 0 32 32" fill="none" xmlns="http://www.w3.org/2000/svg">
<path d="M21.1298 6.8356C21.3947 6.57068 21.7092 6.36054 22.0553 6.21716C22.4015 6.07379 22.7725 6 23.1471 6C23.5217 6 23.8927 6.07379 24.2389 6.21716C24.585 6.36054 24.8995 6.57068 25.1644 6.8356C25.4293 7.10051 25.6395 7.41501 25.7828 7.76114C25.9262 8.10727 26 8.47825 26 8.8529C26 9.22755 25.9262 9.59853 25.7828 9.94466C25.6395 10.2908 25.4293 10.6053 25.1644 10.8702L11.5476 24.487L6 26L7.51298 20.4524L21.1298 6.8356Z" stroke="#AF2043" stroke-width="2" stroke-linecap="round" stroke-linejoin="round"/>
</svg>
