<svg version="1.2" xmlns="http://www.w3.org/2000/svg" viewBox="0 0 40 7" width="40" height="7">
	<title>h2_jackie-svg</title>
	<defs>
		<clipPath clipPathUnits="userSpaceOnUse" id="cp1">
			<path d="m0.2 1.52h1.01q0.41 0 0.63 0.07 0.22 0.06 0.33 0.19 0.11 0.12 0.15 0.3 0.04 0.18 0.04 0.55v0.35q0 0.37-0.08 0.55-0.07 0.17-0.28 0.27-0.2 0.09-0.53 0.09h-0.27v1.6h-1zm1 0.67v1.01q0.04 0 0.08 0 0.13 0 0.19-0.06 0.05-0.07 0.05-0.3v-0.32q0-0.2-0.06-0.27-0.06-0.06-0.26-0.06zm1.59-0.67h1v3.96h-1zm1.55 0h1.67v0.79h-0.67v0.75h0.63v0.76h-0.63v0.87h0.74v0.79h-1.74zm2.18 0h0.7q0.71 0 0.96 0.06 0.26 0.06 0.41 0.29 0.16 0.23 0.16 0.74 0 0.46-0.11 0.62-0.11 0.16-0.44 0.19 0.3 0.08 0.4 0.2 0.1 0.13 0.13 0.24 0.02 0.1 0.02 0.58v1.05h-0.93v-1.32q0-0.32-0.05-0.39-0.05-0.08-0.25-0.08v1.79h-1zm1 0.68v0.88q0.17 0 0.23-0.05 0.07-0.05 0.07-0.31v-0.22q0-0.19-0.06-0.24-0.07-0.06-0.24-0.06zm4.11 1.05h-1v-0.69q0-0.3-0.04-0.38-0.03-0.07-0.14-0.07-0.12 0-0.15 0.09-0.04 0.09-0.04 0.39v1.84q0 0.29 0.04 0.38 0.03 0.09 0.15 0.09 0.11 0 0.14-0.09 0.04-0.09 0.04-0.42v-0.49h1v0.15q0 0.61-0.09 0.87-0.08 0.26-0.37 0.45-0.29 0.2-0.71 0.2-0.44 0-0.73-0.17-0.28-0.16-0.38-0.45-0.09-0.29-0.09-0.88v-1.15q0-0.43 0.03-0.64 0.03-0.22 0.17-0.42 0.14-0.2 0.39-0.31 0.25-0.11 0.58-0.11 0.44 0 0.73 0.17 0.29 0.18 0.38 0.44 0.09 0.26 0.09 0.82zm0.5-1.73h1v3.97h-1zm3.79 0v3.96h-0.88l-0.52-1.8v1.8h-0.84v-3.96h0.84l0.56 1.78v-1.78zm2.85 1.46h-1v-0.36q0-0.35-0.03-0.43-0.03-0.09-0.13-0.09-0.1 0-0.13 0.08-0.03 0.07-0.03 0.37v1.91q0 0.26 0.03 0.35 0.03 0.08 0.13 0.08 0.11 0 0.15-0.09 0.04-0.1 0.04-0.38v-0.47h-0.2v-0.6h1.17v2.13h-0.63l-0.09-0.28q-0.1 0.18-0.26 0.27-0.16 0.09-0.37 0.09-0.25 0-0.47-0.12-0.22-0.13-0.33-0.31-0.12-0.19-0.15-0.39-0.03-0.21-0.03-0.62v-1.18q0-0.56 0.06-0.82 0.06-0.26 0.34-0.47 0.29-0.22 0.73-0.22 0.45 0 0.74 0.19 0.29 0.18 0.37 0.44 0.09 0.26 0.09 0.74zm1.55-1.46h1q0.47 0 0.71 0.08 0.25 0.08 0.4 0.31 0.15 0.23 0.15 0.74 0 0.35-0.11 0.49-0.11 0.14-0.42 0.21 0.35 0.08 0.47 0.27 0.13 0.18 0.13 0.57v0.37q0 0.4-0.09 0.59-0.09 0.2-0.29 0.27-0.19 0.07-0.8 0.07h-1.15zm1 0.68v0.88q0.06 0 0.1 0 0.14 0 0.19-0.08 0.04-0.07 0.04-0.43 0-0.18-0.04-0.26-0.03-0.07-0.09-0.09-0.05-0.02-0.2-0.02zm0 1.5v1.1q0.21 0 0.27-0.06 0.06-0.06 0.06-0.3v-0.37q0-0.26-0.06-0.31-0.05-0.06-0.27-0.06zm3.97-2.18l-0.73 2.53v1.43h-0.93v-1.43l-0.7-2.53h0.92q0.21 1.16 0.24 1.56 0.08-0.64 0.28-1.56zm2.55 0v2.65q0 0.59-0.01 0.76-0.01 0.17-0.11 0.31-0.09 0.14-0.26 0.19-0.17 0.05-0.5 0.05h-0.5v-0.69q0.09 0.01 0.13 0.01 0.11 0 0.17-0.06 0.06-0.05 0.07-0.13 0.01-0.08 0.01-0.3v-2.79zm2.26 0l0.58 3.96h-1.03l-0.05-0.71h-0.36l-0.06 0.71h-1.03l0.5-3.96zm-0.53 2.55q-0.07-0.68-0.15-1.66-0.15 1.13-0.19 1.66zm3.76-0.82h-1v-0.69q0-0.3-0.03-0.38-0.03-0.07-0.14-0.07-0.13 0-0.16 0.09-0.03 0.09-0.03 0.39v1.84q0 0.29 0.03 0.38 0.03 0.09 0.15 0.09 0.11 0 0.14-0.09 0.04-0.09 0.04-0.42v-0.49h1v0.15q0 0.62-0.08 0.87-0.09 0.26-0.38 0.45-0.29 0.2-0.71 0.2-0.44 0-0.72-0.17-0.29-0.16-0.38-0.45-0.1-0.29-0.1-0.87v-1.16q0-0.43 0.03-0.64 0.03-0.22 0.17-0.42 0.14-0.2 0.39-0.31 0.26-0.11 0.58-0.11 0.45 0 0.73 0.17 0.29 0.18 0.38 0.44 0.09 0.26 0.09 0.82zm2.89-1.73l-0.57 1.79 0.63 2.18h-1.04l-0.4-1.7v1.7h-1v-3.97h1v1.54l0.44-1.54zm0.38 0h1v3.97h-1zm1.55 0h1.67v0.79h-0.67v0.75h0.63v0.76h-0.63v0.87h0.74v0.79h-1.74z"/>
		</clipPath>
	</defs>
	<style>
		.s0 { fill: #af2043 } 
	</style>
	<g id="Clip-Path" clip-path="url(#cp1)">
		<g id="Layer">
			<path id="Layer" fill-rule="evenodd" class="s0" d="m0.2 1.5h1q0.4 0 0.6 0.1 0.3 0.1 0.4 0.2 0.1 0.1 0.1 0.3 0.1 0.2 0.1 0.5v0.4q0 0.4-0.1 0.5-0.1 0.2-0.3 0.3-0.2 0.1-0.5 0.1h-0.3v1.6h-1zm1 0.7v1q0 0 0.1 0 0.1 0 0.2-0.1 0-0.1 0-0.3v-0.3q0-0.2 0-0.3-0.1 0-0.3 0zm1.6-0.7h1v3.9h-1zm1.5 0h1.7v0.8h-0.7v0.8h0.7v0.7h-0.7v0.9h0.8v0.8h-1.8zm2.2 0h0.7q0.7 0 1 0.1 0.2 0 0.4 0.3 0.2 0.2 0.2 0.7 0 0.5-0.2 0.6-0.1 0.2-0.4 0.2 0.3 0.1 0.4 0.2 0.1 0.1 0.1 0.2 0.1 0.2 0.1 0.6v1.1h-1v-1.3q0-0.4 0-0.4-0.1-0.1-0.3-0.1v1.8h-1zm1 0.7v0.8q0.2 0 0.3 0 0-0.1 0-0.3v-0.2q0-0.2 0-0.3-0.1 0-0.3 0zm4.1 1h-1v-0.7q0-0.3 0-0.4 0 0-0.1 0-0.2 0-0.2 0.1 0 0 0 0.3v1.9q0 0.3 0 0.4 0 0.1 0.1 0.1 0.2 0 0.2-0.1 0-0.1 0-0.4v-0.5h1v0.1q0 0.6-0.1 0.9 0 0.2-0.3 0.4-0.3 0.2-0.7 0.2-0.5 0-0.8-0.1-0.3-0.2-0.3-0.5-0.1-0.3-0.1-0.9v-1.1q0-0.5 0-0.7 0-0.2 0.2-0.4 0.1-0.2 0.4-0.3 0.2-0.1 0.5-0.1 0.5 0 0.8 0.2 0.2 0.1 0.3 0.4 0.1 0.3 0.1 0.8zm0.5-1.7h1v4h-1zm3.8 0v3.9h-0.9l-0.5-1.8v1.8h-0.8v-3.9h0.8l0.6 1.8v-1.8zm2.8 1.4h-1v-0.3q0-0.4 0-0.5 0 0-0.1 0-0.1 0-0.2 0 0 0.1 0 0.4v1.9q0 0.3 0 0.4 0.1 0 0.2 0 0.1 0 0.1-0.1 0.1 0 0.1-0.3v-0.5h-0.2v-0.6h1.1v2.1h-0.6l-0.1-0.3q-0.1 0.2-0.3 0.3-0.1 0.1-0.3 0.1-0.3 0-0.5-0.1-0.2-0.1-0.3-0.3-0.1-0.2-0.2-0.4 0-0.2 0-0.6v-1.2q0-0.6 0.1-0.8 0-0.3 0.3-0.5 0.3-0.2 0.7-0.2 0.5 0 0.8 0.2 0.3 0.2 0.3 0.4 0.1 0.3 0.1 0.8zm1.6-1.5h1q0.4 0 0.7 0.1 0.2 0 0.4 0.3 0.1 0.2 0.1 0.7 0 0.4-0.1 0.5-0.1 0.1-0.4 0.2 0.4 0.1 0.5 0.3 0.1 0.2 0.1 0.6v0.3q0 0.4-0.1 0.6-0.1 0.2-0.3 0.3-0.2 0.1-0.8 0.1h-1.1zm1 0.6v0.9q0 0 0.1 0 0.1 0 0.2-0.1 0 0 0-0.4 0-0.2 0-0.2-0.1-0.1-0.1-0.1-0.1-0.1-0.2-0.1zm0 1.5v1.1q0.2 0 0.2 0 0.1-0.1 0.1-0.3v-0.4q0-0.2 0-0.3-0.1-0.1-0.3-0.1zm3.9-2.1l-0.7 2.5v1.4h-0.9v-1.4l-0.7-2.5h0.9q0.2 1.1 0.3 1.5 0-0.6 0.2-1.5zm2.6 0v2.6q0 0.6 0 0.8 0 0.1-0.1 0.3-0.1 0.1-0.3 0.2-0.2 0-0.5 0h-0.5v-0.7q0.1 0 0.1 0 0.1 0 0.2 0 0.1-0.1 0.1-0.1 0-0.1 0-0.4v-2.7zm2.2 0l0.6 3.9h-1l-0.1-0.7h-0.3l-0.1 0.7h-1l0.5-3.9zm-0.5 2.5q-0.1-0.7-0.2-1.7-0.1 1.2-0.2 1.7zm3.8-0.8h-1v-0.7q0-0.3-0.1-0.4 0-0.1-0.1-0.1-0.1 0-0.2 0.1 0 0.1 0 0.4v1.9q0 0.3 0 0.3 0.1 0.1 0.2 0.1 0.1 0 0.1-0.1 0.1 0 0.1-0.4v-0.5h1v0.2q0 0.6-0.1 0.9-0.1 0.2-0.4 0.4-0.3 0.2-0.7 0.2-0.4 0-0.7-0.2-0.3-0.1-0.4-0.4-0.1-0.3-0.1-0.9v-1.1q0-0.5 0-0.7 0.1-0.2 0.2-0.4 0.2-0.2 0.4-0.3 0.3-0.1 0.6-0.1 0.4 0 0.7 0.2 0.3 0.1 0.4 0.4 0.1 0.3 0.1 0.8zm2.9-1.7l-0.6 1.8 0.6 2.1h-1l-0.4-1.7v1.7h-1v-3.9h1v1.5l0.4-1.5zm0.4 0h1v3.9h-1zm1.6 0h1.6v0.8h-0.6v0.8h0.6v0.7h-0.6v0.9h0.7v0.8h-1.7z"/>
			<path id="Layer" d="m40 5.5h-19.7v-4h19.7z"/>
			<path id="Layer" d="m0.2 1.5h18.5v4h-18.5z"/>
		</g>
	</g>
</svg>